<?xml version="1.0" encoding="UTF-8" standalone="no"?><!DOCTYPE svg PUBLIC "-//W3C//DTD SVG 1.1//EN" "http://www.w3.org/Graphics/SVG/1.1/DTD/svg11.dtd"><svg width="100%" height="100%" viewBox="0 0 2162 2497" version="1.1" xmlns="http://www.w3.org/2000/svg" xmlns:xlink="http://www.w3.org/1999/xlink" xml:space="preserve" xmlns:serif="http://www.serif.com/" style="fill-rule:evenodd;clip-rule:evenodd;stroke-linecap:round;stroke-linejoin:round;stroke-miterlimit:1.5;"><g><path d="M2054.28,1419.18c-49.751,552.254 -391.605,869.432 -982.118,960.671c-579.681,-91.239 -915.265,-408.417 -964.103,-960.671l0,-1302.19l1946.22,-0l-0,1302.19Z" style="fill:#005fff;"/><path d="M2153.88,1428.15l0.403,-4.477l-0,-1406.68l-2146.22,-0l0,1402.19l100,100l-99.611,-91.191c26.789,302.922 134.262,540.484 312.487,715.714c175.731,172.778 422.164,285.586 735.679,334.931l15.405,2.425l15.412,-2.381c643.435,-99.415 1012.24,-448.778 1066.45,-1050.53Zm-99.597,-8.972c-49.751,552.254 -391.605,869.432 -982.118,960.671c-579.681,-91.239 -915.265,-408.417 -964.103,-960.671l0,-1302.19l1946.22,-0l-0,1302.19Z" style="fill:#fff;"/><g><path d="M1244.59,1283.59c-32.49,-19.907 -67.222,-35.518 -103.346,-46.448c-29.944,29.251 -54.173,62.913 -72.686,100.986c-27.554,-4.317 -55.44,-5 -82.977,-2.031c-18.696,-38.983 -43.088,-73.835 -73.175,-104.556c-36.076,9.164 -70.738,23.076 -103.137,41.395c-0.477,42.988 6.018,85.023 19.485,126.106c-21.945,16.89 -41.615,36.66 -58.531,58.826c-39.713,-14.703 -80.503,-22.269 -122.371,-22.699c-18.53,32.868 -32.817,68.152 -42.512,104.991c29.27,31.542 62.683,57.327 100.241,77.353c-3.48,28.204 -3.412,56.846 0.203,85.224c-37.467,18.19 -70.762,42.342 -99.884,72.455c9.871,37.318 24.327,73.306 43.016,107.084c41.87,1.62 82.629,-3.95 122.278,-16.711c17.023,22.996 36.789,43.731 58.817,61.698c-13.273,40.428 -19.569,82.15 -18.887,125.166c32.49,19.908 67.222,35.518 103.346,46.449c29.945,-29.252 54.173,-62.914 72.686,-100.987c27.554,4.318 55.44,5 82.977,2.031c18.696,38.984 43.088,73.836 73.175,104.557c36.076,-9.164 70.738,-23.076 103.137,-41.396c0.477,-42.988 -6.018,-85.023 -19.485,-126.105c21.945,-16.891 41.615,-36.661 58.531,-58.827c39.713,14.704 80.504,22.27 122.371,22.699c18.53,-32.867 32.817,-68.152 42.512,-104.99c-29.269,-31.543 -62.683,-57.327 -100.241,-77.354c3.48,-28.204 3.412,-56.845 -0.203,-85.223c37.467,-18.191 70.762,-42.342 99.884,-72.456c-9.87,-37.317 -24.327,-73.305 -43.016,-107.083c-41.87,-1.621 -82.629,3.95 -122.277,16.711c-17.023,-22.997 -36.79,-43.732 -58.818,-61.699c13.273,-40.427 19.569,-82.149 18.887,-125.166Zm-155.624,233.501c81.99,36.85 121.174,134.392 87.447,217.687c-33.727,83.294 -127.675,121.001 -209.665,84.151c-81.99,-36.85 -121.174,-134.393 -87.447,-217.687c33.727,-83.295 127.675,-121.001 209.665,-84.151Z" style="fill:#c2c7ce;stroke:#fff;stroke-width:50px;"/><path d="M1382.79,580.2c-31.522,-4.057 -63.435,-4.057 -94.957,-0c-12.185,32.46 -20.603,65.869 -25.253,100.226c-22.948,6.215 -45.004,15.345 -65.627,27.168c-27.597,-21.008 -57.187,-38.683 -88.77,-53.025c-25.159,19.408 -47.725,41.961 -67.144,67.106c14.35,31.564 32.035,61.136 53.055,88.717c-11.829,20.611 -20.965,42.654 -27.183,65.589c-34.377,4.647 -67.806,13.06 -100.285,25.238c-4.06,31.504 -4.06,63.398 -0,94.901c32.479,12.178 65.908,20.591 100.285,25.239c6.218,22.934 15.354,44.977 27.183,65.589c-21.02,27.58 -38.705,57.153 -53.055,88.717c19.419,25.145 41.985,47.697 67.144,67.105c31.583,-14.342 61.173,-32.017 88.77,-53.024c20.623,11.822 42.679,20.953 65.627,27.167c4.65,34.357 13.068,67.766 25.253,100.227c31.522,4.057 63.435,4.057 94.957,-0c12.185,-32.461 20.603,-65.87 25.253,-100.227c22.948,-6.214 45.003,-15.345 65.627,-27.167c27.597,21.007 57.186,38.682 88.769,53.024c25.16,-19.408 47.726,-41.96 67.145,-67.105c-14.351,-31.564 -32.036,-61.137 -53.056,-88.717c11.83,-20.612 20.966,-42.655 27.184,-65.589c34.377,-4.648 67.805,-13.061 100.285,-25.239c4.059,-31.503 4.059,-63.397 0,-94.901c-32.48,-12.178 -65.908,-20.591 -100.285,-25.238c-6.218,-22.935 -15.354,-44.978 -27.184,-65.589c21.02,-27.581 38.705,-57.153 53.056,-88.717c-19.419,-25.145 -41.985,-47.698 -67.145,-67.106c-31.583,14.342 -61.172,32.017 -88.769,53.025c-20.624,-11.823 -42.679,-20.953 -65.627,-27.168c-4.65,-34.357 -13.068,-67.766 -25.253,-100.226Zm-47.479,232.054c75.334,-0 136.496,61.126 136.496,136.416c0,75.29 -61.162,136.416 -136.496,136.416c-75.334,-0 -136.495,-61.126 -136.495,-136.416c-0,-75.29 61.161,-136.416 136.495,-136.416Z" style="fill:#ff9601;"/><path d="M1429.6,562.628c-6.507,-17.336 -22.063,-29.656 -40.428,-32.019c-35.759,-4.603 -71.962,-4.603 -107.721,-0c-18.366,2.363 -33.921,14.683 -40.428,32.019c-9.767,26.017 -17.35,52.583 -22.749,79.699c-5.707,2.178 -11.351,4.515 -16.927,7.008c-23.007,-15.363 -47.171,-28.794 -72.49,-40.291c-16.854,-7.654 -36.556,-5.37 -51.213,5.935c-28.545,22.019 -54.146,47.606 -76.178,76.134c-11.325,14.664 -13.612,34.389 -5.944,51.255c11.5,25.295 24.933,49.436 40.297,72.423c-2.487,5.559 -4.819,11.186 -6.993,16.875c-27.135,5.396 -53.72,12.974 -79.754,22.736c-17.342,6.502 -29.67,22.058 -32.036,40.427c-4.606,35.746 -4.606,71.935 -0,107.681c2.366,18.369 14.694,33.925 32.036,40.428c26.034,9.761 52.619,17.34 79.754,22.736c2.174,5.688 4.506,11.316 6.993,16.875c-15.364,22.986 -28.797,47.127 -40.297,72.422c-7.668,16.867 -5.381,36.591 5.944,51.255c22.032,28.528 47.633,54.115 76.178,76.134c14.657,11.306 34.359,13.589 51.213,5.936c25.319,-11.498 49.483,-24.928 72.49,-40.291c5.576,2.493 11.22,4.83 16.927,7.008c5.399,27.115 12.982,53.682 22.749,79.699c6.507,17.335 22.062,29.655 40.428,32.019c35.759,4.602 71.962,4.602 107.721,-0c18.365,-2.364 33.921,-14.684 40.428,-32.019c9.766,-26.017 17.349,-52.584 22.749,-79.699c5.706,-2.178 11.351,-4.515 16.927,-7.008c23.007,15.363 47.17,28.793 72.49,40.291c16.853,7.653 36.556,5.37 51.212,-5.936c28.545,-22.019 54.147,-47.606 76.179,-76.134c11.324,-14.664 13.612,-34.388 5.943,-51.255c-11.5,-25.295 -24.932,-49.436 -40.297,-72.423c2.488,-5.558 4.82,-11.186 6.994,-16.874c27.135,-5.396 53.719,-12.975 79.754,-22.736c17.342,-6.503 29.669,-22.059 32.036,-40.428c4.606,-35.746 4.606,-71.935 0,-107.681c-2.367,-18.369 -14.694,-33.925 -32.036,-40.427c-26.035,-9.762 -52.619,-17.34 -79.754,-22.736c-2.174,-5.689 -4.506,-11.316 -6.994,-16.875c15.365,-22.987 28.797,-47.128 40.297,-72.423c7.669,-16.866 5.381,-36.591 -5.943,-51.255c-22.032,-28.528 -47.634,-54.115 -76.179,-76.134c-14.656,-11.305 -34.359,-13.589 -51.212,-5.935c-25.319,11.497 -49.483,24.928 -72.491,40.291c-5.575,-2.493 -11.22,-4.83 -16.926,-7.008c-5.4,-27.116 -12.983,-53.682 -22.749,-79.699Zm-46.81,17.572c-31.522,-4.057 -63.435,-4.057 -94.957,-0c-12.185,32.46 -20.603,65.869 -25.253,100.226c-22.948,6.215 -45.004,15.345 -65.627,27.168c-27.597,-21.008 -57.187,-38.683 -88.77,-53.025c-25.159,19.408 -47.725,41.961 -67.144,67.106c14.35,31.564 32.035,61.136 53.055,88.717c-11.829,20.611 -20.965,42.654 -27.183,65.589c-34.377,4.647 -67.806,13.06 -100.285,25.238c-4.06,31.504 -4.06,63.398 -0,94.901c32.479,12.178 65.908,20.591 100.285,25.239c6.218,22.934 15.354,44.977 27.183,65.589c-21.02,27.58 -38.705,57.153 -53.055,88.717c19.419,25.145 41.985,47.697 67.144,67.105c31.583,-14.342 61.173,-32.017 88.77,-53.024c20.623,11.822 42.679,20.953 65.627,27.167c4.65,34.357 13.068,67.766 25.253,100.227c31.522,4.057 63.435,4.057 94.957,-0c12.185,-32.461 20.603,-65.87 25.253,-100.227c22.948,-6.214 45.003,-15.345 65.627,-27.167c27.597,21.007 57.186,38.682 88.769,53.024c25.16,-19.408 47.726,-41.96 67.145,-67.105c-14.351,-31.564 -32.036,-61.137 -53.056,-88.717c11.83,-20.612 20.966,-42.655 27.184,-65.589c34.377,-4.648 67.805,-13.061 100.285,-25.239c4.059,-31.503 4.059,-63.397 0,-94.901c-32.48,-12.178 -65.908,-20.591 -100.285,-25.238c-6.218,-22.935 -15.354,-44.978 -27.184,-65.589c21.02,-27.581 38.705,-57.153 53.056,-88.717c-19.419,-25.145 -41.985,-47.698 -67.145,-67.106c-31.583,14.342 -61.172,32.017 -88.769,53.025c-20.624,-11.823 -42.679,-20.953 -65.627,-27.168c-4.65,-34.357 -13.068,-67.766 -25.253,-100.226Zm-47.479,232.054c75.334,-0 136.496,61.126 136.496,136.416c0,75.29 -61.162,136.416 -136.496,136.416c-75.334,-0 -136.495,-61.126 -136.495,-136.416c-0,-75.29 61.161,-136.416 136.495,-136.416Zm0,50c47.731,-0 86.496,38.713 86.496,86.416c0,47.702 -38.765,86.416 -86.496,86.416c-47.73,-0 -86.495,-38.714 -86.495,-86.416c-0,-47.703 38.765,-86.416 86.495,-86.416Z" style="fill:#fff;"/></g><rect x="88.204" y="231.912" width="1985.01" height="706.119" style="fill:#fff;"/><rect x="713.222" y="308.305" width="130.727" height="554.541" style="fill:#111d2f;"/><path d="M1313.25,307.097l-391.629,-0l0,554.54l130.728,0c-0,0 -0,-0.043 -0,-207.802l260.901,0c74.988,0 135.868,-64.14 135.868,-143.144l-0,-60.45c-0,-79.004 -60.88,-143.144 -135.868,-143.144Zm5.14,173.369c0,-19.671 -15.158,-35.64 -33.828,-35.64l-232.213,-0l-0,71.28l232.213,0c18.67,0 33.828,-15.97 33.828,-35.64Z" style="fill:#111d2f;"/><path d="M238.785,308.406l-0,-0.101l-130.728,-0l0,554.54l114.993,0c5.718,0.797 11.557,1.208 17.487,1.208l262.537,0c73.118,0 132.48,-62.541 132.48,-139.575l-0,-67.588c-0,-26.338 -6.939,-50.982 -18.99,-72.002c12.063,-21.384 18.99,-46.341 18.99,-72.989l-0,-60.45c-0,-79.004 -60.88,-143.144 -135.867,-143.144l-255.762,-0c-1.718,-0 -3.427,0.033 -5.14,0.101Zm266.041,382.278c0,-19.671 -15.158,-35.641 -33.828,-35.641l-232.213,0l-0,71.281l232.213,0c18.67,0 33.828,-15.97 33.828,-35.64Zm0,-209.01c0,-19.67 -15.158,-35.64 -33.828,-35.64l-232.213,-0l-0,71.28l232.213,0c18.67,0 33.828,-15.97 33.828,-35.64Z" style="fill:#111d2f;"/><path d="M2054.28,655.043l-396.769,0l-0,35.641c-0,19.67 15.158,35.64 33.828,35.64l362.941,0l-0,137.729l-395.017,0c-73.117,0 -132.48,-62.541 -132.48,-139.575l0,-273.029c0,-79.004 60.88,-143.144 135.868,-143.144l391.629,-0l-0,137.729l-362.941,-0c-18.67,-0 -33.828,15.97 -33.828,35.64l-0,35.64l396.769,0l-0,137.729Z" style="fill:#111d2f;"/></g></svg>