<?xml version="1.0" encoding="UTF-8" standalone="no"?><!DOCTYPE svg PUBLIC "-//W3C//DTD SVG 1.1//EN" "http://www.w3.org/Graphics/SVG/1.1/DTD/svg11.dtd"><svg width="320" height="456" viewBox="0 0 320 456" version="1.1" xmlns="http://www.w3.org/2000/svg" xmlns:xlink="http://www.w3.org/1999/xlink" xml:space="preserve" xmlns:serif="http://www.serif.com/" style="fill-rule:evenodd;clip-rule:evenodd;stroke-linecap:round;stroke-linejoin:round;stroke-miterlimit:1.5;"><g><g><g><g><g><g><path d="M60.573,87.039c2.724,26.628 14.814,36.299 34.047,30.468c3.196,-21.228 -7.285,-31.082 -34.047,-30.468Z" style="fill:#ac8d37;"/><path d="M85.015,62.24c2.691,27.518 14.638,37.511 33.645,31.485c3.158,-21.936 -7.199,-32.119 -33.645,-31.485Z" style="fill:#ac8d37;"/><path d="M102.112,99.891c0.456,28.218 12.874,39.199 33.595,33.02c4.006,-16.981 -5.119,-30.076 -33.595,-33.02Z" style="fill:#ac8d37;"/><path d="M77.875,128.517c11.212,25.302 19.547,21.724 39.514,23.308c-4.028,-12.507 -19.289,-29.212 -39.514,-23.308Z" style="fill:#ac8d37;"/><path d="M127.632,91.613c8.644,13.377 10.036,17.962 22.751,22.131c-0.848,-15.853 -6.948,-22.812 -22.751,-22.131Z" style="fill:#ac8d37;"/><path d="M122.968,50.623c-6.959,18.59 3.559,34.033 23.58,36.964c4.226,-20.827 -0.272,-32.891 -23.58,-36.964Z" style="fill:#ac8d37;"/><path d="M29.248,118.956c13.807,22.932 27.949,25.057 43.871,15.304c-6.152,-20.567 -19.92,-27.259 -43.871,-15.304Z" style="fill:#ac8d37;"/><path d="M41.458,156.039c19.121,18.401 36.028,20.244 46.985,3.413c-11.144,-18.134 -25.512,-17.802 -46.985,-3.413Z" style="fill:#ac8d37;"/><path d="M85.015,176.749c20.29,12.896 30.41,9.562 42.669,-4.575c-12.162,-16.532 -27.155,-15.711 -42.669,4.575Z" style="fill:#ac8d37;"/></g><g><path d="M258.411,87.039c-2.723,26.628 -14.813,36.299 -34.046,30.468c-3.196,-21.228 7.284,-31.082 34.046,-30.468Z" style="fill:#ac8d37;"/><path d="M233.97,62.24c-2.692,27.518 -14.639,37.511 -33.645,31.485c-3.158,-21.936 7.199,-32.119 33.645,-31.485Z" style="fill:#ac8d37;"/><path d="M216.873,99.891c-0.456,28.218 -12.874,39.199 -33.595,33.02c-4.007,-16.981 5.119,-30.076 33.595,-33.02Z" style="fill:#ac8d37;"/><path d="M241.11,128.517c-11.212,25.302 -19.547,21.724 -39.514,23.308c4.028,-12.507 19.289,-29.212 39.514,-23.308Z" style="fill:#ac8d37;"/><path d="M191.353,91.613c-8.644,13.377 -10.036,17.962 -22.752,22.131c0.848,-15.853 6.949,-22.812 22.752,-22.131Z" style="fill:#ac8d37;"/><path d="M196.016,50.623c6.959,18.59 -3.559,34.033 -23.58,36.964c-4.226,-20.827 0.272,-32.891 23.58,-36.964Z" style="fill:#ac8d37;"/><path d="M289.736,118.956c-13.807,22.932 -27.948,25.057 -43.87,15.304c6.151,-20.567 19.919,-27.259 43.87,-15.304Z" style="fill:#ac8d37;"/><path d="M277.526,156.039c-19.121,18.401 -36.028,20.244 -46.985,3.413c11.144,-18.134 25.513,-17.802 46.985,-3.413Z" style="fill:#ac8d37;"/><path d="M233.97,176.749c-20.291,12.896 -30.41,9.562 -42.67,-4.575c12.162,-16.532 27.156,-15.711 42.67,4.575Z" style="fill:#ac8d37;"/></g><path d="M157.89,26.253c-15.033,21.174 -13.414,34.891 2.523,41.019c15.405,-13.966 14.928,-26.944 -2.523,-41.019Z" style="fill:#ac8d37;"/></g><path d="M143.366,158.094c-0.54,-7.355 -2.041,-13.572 -4.949,-16.27l-14.802,-0.386c13.494,9.1 6.666,23.578 5.851,95.739l13.559,9.298l0.341,-88.381Z" style="fill:#ac8d37;"/><path d="M177.321,158.094c0.54,-7.355 2.041,-13.572 4.949,-16.27l14.803,-0.386c-13.495,9.1 -6.667,23.578 -5.852,95.739l-13.559,9.298l-0.341,-88.381Z" style="fill:#ab8c37;"/><g><path d="M161.216,72.048c-1.004,-1.243 -2.102,-1.066 -3.253,-0.076c-6.245,61.126 -8.517,118.258 -7.646,179.654l8.786,7.93l9.352,-7.848c1.102,-71.218 -0.504,-126.291 -7.239,-179.66Z" style="fill:#ac8d37;"/></g></g><path d="M9.939,92.904c27.442,-55.053 84.309,-92.904 149.947,-92.904c65.369,-0 122.04,37.543 149.608,92.228c-30.54,-50.706 -86.125,-84.648 -149.575,-84.648c-63.729,-0 -119.524,34.241 -149.98,85.324Z" style="fill:#ac8d37;"/></g><g><path d="M161.287,270.406c41.74,-27.086 104.591,-31.575 156.599,-26.85l0.473,33.669c-37.525,-15.103 -115.919,-18.53 -157.072,0l0,-6.819Z" style="fill:#ae1e23;"/><path d="M161.287,270.406c41.74,-27.086 104.591,-31.575 156.599,-26.85l0.473,33.669c-37.525,-15.103 -115.919,-18.53 -157.072,0l0,-6.819Zm2.148,1.173c40.853,-25.957 101.57,-30.42 152.33,-26.054c0,-0 0.402,28.558 0.402,28.558c-38.016,-13.929 -111.533,-16.923 -152.732,-0.115l0,-2.389Z" style="fill:#ab8c37;"/><path d="M161.309,263.946c39.68,-34.02 87.217,-50.263 133.004,-47.275l0.523,21.869c-47.314,-2.815 -94.965,2.275 -133.527,29.015l0,-3.609Z" style="fill:#e2dddb;"/><path d="M161.309,263.946c39.68,-34.02 87.217,-50.263 133.004,-47.275l0.523,21.869c-47.314,-2.815 -94.965,2.275 -133.527,29.015l0,-3.609Zm9.097,-4.681c37.016,-28.879 80.088,-42.793 121.816,-40.576c0,0 0.421,17.585 0.421,17.585c-42.893,-2.315 -85.922,2.044 -122.237,22.991Z" style="fill:#ab8c37;"/><path d="M158.146,277.225l-0,-6.819c-41.74,-27.086 -104.592,-31.575 -156.599,-26.85l-0.473,33.669c37.525,-15.103 115.919,-18.53 157.072,0Z" style="fill:#af1e23;stroke:#ab8c37;stroke-width:2.15px;"/><path d="M158.124,267.555l-0,-3.609c-39.68,-34.02 -87.217,-50.263 -133.004,-47.275l-0.523,21.869c47.314,-2.815 94.965,2.275 133.527,29.015Z" style="fill:#e2dddb;"/><path d="M158.124,267.555l-0,-3.609c-39.68,-34.02 -87.217,-50.263 -133.004,-47.275l-0.523,21.869c47.314,-2.815 94.965,2.275 133.527,29.015Zm-9.098,-8.29c-36.314,-20.947 -79.343,-25.306 -122.236,-22.991c0,-0 0.421,-17.585 0.421,-17.585c41.728,-2.217 84.799,11.697 121.815,40.576Z" style="fill:#ab8c37;"/></g></g><text x="-3.118px" y="381.574px" style="font-family:'Georgia-Bold', 'Georgia', serif;font-weight:700;font-size:124.411px;fill:#171b4a;">BITE</text><g><path d="M16.367,421.365l-2.794,0l-0.778,10.743c-0.057,0.902 0.192,1.622 0.749,2.16c-1.785,-0.538 -2.649,-1.258 -2.592,-2.16l0.519,-7.056c-1.056,0.614 -1.968,0.921 -2.736,0.921l-1.296,0c0.825,0.96 1.238,1.949 1.238,2.967c0,0.806 -0.374,1.468 -1.123,1.987c-0.672,0.461 -1.431,0.701 -2.275,0.72c-1.133,0.019 -2.074,-0.312 -2.823,-0.994c-0.748,-0.681 -1.123,-1.589 -1.123,-2.721c0,-1.076 0.509,-1.949 1.527,-2.621c0.883,-0.595 1.891,-0.893 3.023,-0.893c2.765,-0.019 4.656,-0.336 5.674,-0.95l0.202,-2.103l-10.685,0l0.058,-1.296l15.292,0l-0.057,1.296Zm-10.656,4.608c-0.903,0 -1.709,0.221 -2.419,0.663c-0.807,0.499 -1.22,1.171 -1.239,2.016c-0.019,0.902 0.672,1.353 2.074,1.353c2.208,0 3.331,-0.643 3.369,-1.929c0.019,-0.538 -0.139,-1.023 -0.475,-1.455c-0.336,-0.432 -0.773,-0.648 -1.31,-0.648Z" style="fill:#ae1e23;fill-rule:nonzero;stroke:#ae1e23;stroke-width:0.51px;stroke-linecap:butt;stroke-miterlimit:2;"/><path d="M35.605,419.781c-0.634,-1.42 -1.488,-2.63 -2.564,-3.628c-1.267,-1.191 -2.582,-1.796 -3.945,-1.815c-1.037,-0.019 -1.93,0.25 -2.678,0.807c-0.845,0.614 -1.268,1.42 -1.268,2.419c0,1.421 0.452,2.256 1.354,2.505l2.534,0l0.317,1.296l-2.765,0l-0.748,10.599c-0.077,1.19 0.249,2.073 0.979,2.649c-0.519,-0.096 -1.104,-0.422 -1.757,-0.979c-0.768,-0.653 -1.133,-1.258 -1.094,-1.814l0.777,-10.455l-1.901,0l0.058,-1.296l2.506,0c-0.845,-0.691 -1.277,-1.574 -1.296,-2.649c-0.02,-1.344 0.46,-2.41 1.44,-3.197c0.883,-0.71 2.016,-1.066 3.398,-1.066c1.632,0 3.12,0.692 4.464,2.074c1.113,1.133 1.997,2.573 2.649,4.32l-0.46,0.23Z" style="fill:#ae1e23;fill-rule:nonzero;stroke:#ae1e23;stroke-width:0.51px;stroke-linecap:butt;stroke-miterlimit:2;"/><path d="M43.352,421.365l-3.629,0c0.442,0.653 0.662,1.258 0.662,1.815c0,0.883 -0.844,1.344 -2.534,1.382c-0.403,0 -1.104,-0.038 -2.102,-0.115l-2.074,-0.173c-0.288,-0.019 -0.562,0.082 -0.821,0.303c-0.259,0.22 -0.389,0.475 -0.389,0.763c0,0.556 0.356,1.065 1.066,1.526c0.902,-0.365 2.006,-0.566 3.312,-0.605c1.152,-0.019 2.17,0.269 3.053,0.864c0.998,0.672 1.497,1.565 1.497,2.679c0,0.921 -0.441,1.66 -1.324,2.217c-0.768,0.48 -1.642,0.72 -2.621,0.72c-0.461,-0.269 -0.864,-0.883 -1.21,-1.843c0.423,0.077 0.912,0.115 1.469,0.115c1.901,0.039 2.88,-0.557 2.938,-1.785c0.057,-1.172 -1.066,-1.767 -3.37,-1.786c-1.382,-0.019 -2.63,0.278 -3.744,0.893c-1.363,0.749 -2.054,1.766 -2.073,3.053c-0.02,1.152 0.777,2.102 2.39,2.851c1.267,0.595 2.553,0.912 3.859,0.95c0.576,0.019 1.123,-0.057 1.642,-0.23c-0.058,0.557 -0.365,0.835 -0.922,0.835c-1.92,0.019 -3.734,-0.346 -5.443,-1.094c-2.17,-0.941 -3.264,-2.237 -3.283,-3.888c-0.019,-1.46 1.075,-2.708 3.283,-3.744c-1.402,-0.672 -2.112,-1.536 -2.131,-2.592c-0,-0.442 0.249,-0.835 0.749,-1.181c0.441,-0.326 0.892,-0.49 1.353,-0.49c0.499,0 1.243,0.048 2.232,0.144c0.989,0.096 1.733,0.144 2.232,0.144c1.382,0.02 2.074,-0.384 2.074,-1.209c0.019,-0.096 -0.029,-0.269 -0.144,-0.519l-9.821,0l0.058,-1.296l13.823,0l-0.057,1.296Z" style="fill:#ae1e23;fill-rule:nonzero;stroke:#ae1e23;stroke-width:0.51px;stroke-linecap:butt;stroke-miterlimit:2;"/><path d="M67.889,421.365l-2.65,0l-0.748,10.743c-0.058,0.864 0.23,1.593 0.864,2.188c-1.92,-0.46 -2.832,-1.286 -2.736,-2.476l0.633,-8.208c-1.229,0.749 -2.371,1.133 -3.427,1.152c-0.499,0.019 -1.229,-0.063 -2.189,-0.245c-0.96,-0.182 -1.67,-0.274 -2.131,-0.274c-0.48,0 -0.979,0.164 -1.497,0.49c-0.576,0.346 -0.864,0.739 -0.864,1.181c-0,0.499 0.355,0.758 1.065,0.777c0.48,0.019 1.162,-0.115 2.045,-0.403c0.883,-0.288 1.546,-0.432 1.987,-0.432c0.691,0 1.315,0.403 1.872,1.21c0.518,0.729 0.787,1.449 0.806,2.16c0.02,0.806 -0.451,1.545 -1.411,2.217c-0.729,0.519 -1.574,0.912 -2.534,1.181c1.075,1.536 1.622,2.467 1.641,2.794c0.02,0.326 -0.249,0.499 -0.806,0.518c-0.115,-0 -0.413,-0.461 -0.893,-1.382l-0.662,-1.268c-0.058,-0.096 -0.154,-0.278 -0.288,-0.547c-0.576,0.096 -1.306,0.144 -2.189,0.144c-0.845,0 -1.699,-0.211 -2.563,-0.633c-1.018,-0.5 -1.536,-1.124 -1.555,-1.872c-0.019,-0.519 0.259,-0.96 0.835,-1.325c0.48,-0.327 0.998,-0.49 1.555,-0.49c1.363,-0.019 2.746,0.951 4.147,2.909c2.343,-0.614 3.523,-1.555 3.543,-2.822c-0,-0.327 -0.12,-0.615 -0.36,-0.864c-0.24,-0.25 -0.524,-0.375 -0.85,-0.375c-0.384,0 -0.941,0.101 -1.67,0.303c-0.73,0.201 -1.277,0.312 -1.642,0.331c-0.729,0.019 -1.473,-0.317 -2.232,-1.008c-0.758,-0.691 -1.147,-1.402 -1.166,-2.131c-0.019,-0.653 0.422,-1.219 1.325,-1.699c0.748,-0.423 1.488,-0.644 2.217,-0.663c0.403,-0.019 1.171,0.077 2.304,0.288c0.941,0.173 1.709,0.259 2.304,0.259c1.747,0 2.87,-0.249 3.37,-0.748l0.086,-0.98l-13.593,0l0.057,-1.296l18.058,0l-0.058,1.296Zm-14.976,8.496c-0.921,0 -1.421,0.365 -1.497,1.095c-0,0.364 0.355,0.652 1.065,0.864c0.423,0.115 0.855,0.182 1.296,0.201c0.269,0 0.835,-0.096 1.699,-0.288c-0.864,-1.248 -1.718,-1.872 -2.563,-1.872Z" style="fill:#ae1e23;fill-rule:nonzero;stroke:#ae1e23;stroke-width:0.51px;stroke-linecap:butt;stroke-miterlimit:2;"/><path d="M74.657,421.365l-3.024,0l-0.72,10.311c-0.096,1.286 0.278,2.227 1.123,2.822c-0.518,-0.096 -1.113,-0.442 -1.785,-1.037c-0.807,-0.71 -1.191,-1.353 -1.152,-1.929l0.72,-10.167l-1.844,0l0.058,-1.296l6.681,0l-0.057,1.296Z" style="fill:#ae1e23;fill-rule:nonzero;stroke:#ae1e23;stroke-width:0.51px;stroke-linecap:butt;stroke-miterlimit:2;"/><path d="M90.151,421.365l-2.794,0l-0.777,10.743c-0.058,0.902 0.192,1.622 0.749,2.16c-1.786,-0.538 -2.65,-1.258 -2.592,-2.16l0.518,-7.056c-1.056,0.614 -1.968,0.921 -2.736,0.921l-1.296,0c0.826,0.96 1.239,1.949 1.239,2.967c-0,0.806 -0.375,1.468 -1.124,1.987c-0.672,0.461 -1.43,0.701 -2.275,0.72c-1.133,0.019 -2.073,-0.312 -2.822,-0.994c-0.749,-0.681 -1.123,-1.589 -1.123,-2.721c-0,-1.076 0.508,-1.949 1.526,-2.621c0.883,-0.595 1.891,-0.893 3.024,-0.893c2.765,-0.019 4.656,-0.336 5.673,-0.95l0.202,-2.103l-10.685,0l0.058,-1.296l15.293,0l-0.058,1.296Zm-10.656,4.608c-0.902,0 -1.709,0.221 -2.419,0.663c-0.806,0.499 -1.219,1.171 -1.238,2.016c-0.02,0.902 0.672,1.353 2.073,1.353c2.208,0 3.331,-0.643 3.37,-1.929c0.019,-0.538 -0.139,-1.023 -0.475,-1.455c-0.336,-0.432 -0.773,-0.648 -1.311,-0.648Z" style="fill:#ae1e23;fill-rule:nonzero;stroke:#ae1e23;stroke-width:0.51px;stroke-linecap:butt;stroke-miterlimit:2;"/><path d="M87.185,419.954c-0.423,0.019 -1.028,-0.413 -1.815,-1.296l-2.361,-2.649c-0.48,0.499 -0.912,0.758 -1.296,0.777c-0.557,0.019 -1.143,-0.259 -1.757,-0.835c-0.614,-0.576 -0.922,-1.142 -0.922,-1.699c0,-0.403 0.173,-0.735 0.519,-0.994c0.345,-0.259 0.729,-0.389 1.152,-0.389c0.384,0 1.229,0.72 2.534,2.16l2.736,3.024c0.806,0.884 1.555,1.364 2.246,1.44c-0.134,0.288 -0.48,0.442 -1.036,0.461Zm-6.048,-5.501c-0.634,0 -0.951,0.221 -0.951,0.663c0,0.249 0.116,0.465 0.346,0.648c0.23,0.182 0.48,0.273 0.749,0.273c0.345,0 0.758,-0.211 1.238,-0.633c-0.441,-0.634 -0.902,-0.951 -1.382,-0.951Z" style="fill:#ae1e23;fill-rule:nonzero;stroke:#ae1e23;stroke-width:0.51px;stroke-linecap:butt;stroke-miterlimit:2;"/><path d="M106.452,421.365l-2.794,0l-0.778,10.743c-0.057,0.902 0.192,1.622 0.749,2.16c-1.785,-0.538 -2.649,-1.258 -2.592,-2.16l0.519,-7.056c-1.056,0.614 -1.968,0.921 -2.736,0.921l-1.296,0c0.825,0.96 1.238,1.949 1.238,2.967c0,0.806 -0.374,1.468 -1.123,1.987c-0.672,0.461 -1.43,0.701 -2.275,0.72c-1.133,0.019 -2.074,-0.312 -2.823,-0.994c-0.748,-0.681 -1.123,-1.589 -1.123,-2.721c0,-1.076 0.509,-1.949 1.527,-2.621c0.883,-0.595 1.891,-0.893 3.024,-0.893c2.764,-0.019 4.655,-0.336 5.673,-0.95l0.202,-2.103l-10.685,0l0.058,-1.296l15.292,0l-0.057,1.296Zm-10.656,4.608c-0.903,0 -1.709,0.221 -2.419,0.663c-0.807,0.499 -1.22,1.171 -1.239,2.016c-0.019,0.902 0.672,1.353 2.074,1.353c2.208,0 3.331,-0.643 3.369,-1.929c0.02,-0.538 -0.139,-1.023 -0.475,-1.455c-0.336,-0.432 -0.773,-0.648 -1.31,-0.648Z" style="fill:#ae1e23;fill-rule:nonzero;stroke:#ae1e23;stroke-width:0.51px;stroke-linecap:butt;stroke-miterlimit:2;"/><path d="M131.306,421.365l-2.794,0l-0.806,11.175c0.038,0.768 0.336,1.44 0.892,2.016c-0.672,-0.231 -1.267,-0.567 -1.785,-1.008c-0.653,-0.557 -0.96,-1.133 -0.922,-1.728l0.461,-5.962c-0.422,0.461 -0.835,0.701 -1.238,0.72c-0.634,0.019 -1.162,-0.24 -1.584,-0.778c-0.922,1.632 -2.602,2.458 -5.04,2.477c-0.903,0 -1.949,-0.336 -3.139,-1.008l2.073,2.736c2.016,2.65 4.205,4.042 6.567,4.176c-0.384,0.211 -0.778,0.317 -1.181,0.317c-2.727,-0 -5.347,-1.632 -7.863,-4.896l-1.814,-2.362l2.16,-1.238c0.672,0.826 1.45,1.248 2.333,1.267c1.286,0.019 2.39,-0.408 3.312,-1.281c0.921,-0.874 1.382,-1.954 1.382,-3.24c0,-1.498 -0.749,-2.247 -2.246,-2.247c-1.248,0 -2.41,0.269 -3.485,0.807c-1.152,0.576 -2.016,1.373 -2.592,2.39l0.23,-2.649c0.864,-1.018 2.621,-1.536 5.271,-1.556c1.171,0 2.213,0.423 3.125,1.268c0.912,0.844 1.387,1.843 1.425,2.995c0.019,0.576 -0.096,1.123 -0.345,1.641c0.288,0.058 0.662,0.115 1.123,0.173c0.345,-0.038 0.873,-0.345 1.584,-0.921l0.259,-3.284l-1.642,0l0.058,-1.296l6.278,0l-0.057,1.296Z" style="fill:#ae1e23;fill-rule:nonzero;stroke:#ae1e23;stroke-width:0.51px;stroke-linecap:butt;stroke-miterlimit:2;"/><path d="M145.504,421.365l-2.88,0c0.422,0.5 0.643,1.008 0.662,1.527c0.019,0.825 -0.518,1.43 -1.613,1.814c-0.748,0.269 -1.632,0.403 -2.649,0.403c-0.307,0 -0.763,-0.024 -1.368,-0.072c-0.605,-0.048 -1.061,-0.072 -1.368,-0.072c-0.922,0 -1.714,0.404 -2.376,1.21c-0.662,0.806 -0.994,1.68 -0.994,2.621c0,1.804 1.028,2.736 3.082,2.793c0.922,0.019 1.728,-0.086 2.419,-0.317c-0.499,-0.614 -0.758,-1.488 -0.777,-2.62c-0.02,-0.672 0.316,-1.229 1.007,-1.671c0.596,-0.384 1.248,-0.576 1.959,-0.576c0.768,0 1.401,0.322 1.901,0.965c0.499,0.643 0.758,1.358 0.777,2.146c0.039,1.401 -0.989,2.448 -3.081,3.139c0.806,1.286 1.66,1.939 2.563,1.958c0.345,0 0.518,0.173 0.518,0.519c0.019,0.422 -0.201,0.643 -0.662,0.662c-0.864,0.019 -2.007,-0.998 -3.427,-3.053c-0.634,0.096 -1.459,0.154 -2.477,0.173c-1.363,0.019 -2.501,-0.442 -3.413,-1.382c-0.912,-0.941 -1.387,-2.093 -1.425,-3.456c-0.02,-1.21 0.364,-2.29 1.152,-3.24c0.787,-0.951 1.776,-1.435 2.966,-1.455c0.134,0 0.653,0.029 1.555,0.087c0.192,0.019 0.73,0.038 1.613,0.057c1.824,0.058 2.755,-0.393 2.793,-1.353c0.02,-0.365 -0.038,-0.634 -0.172,-0.807l-10.339,0l0.057,-1.296l14.054,0l-0.057,1.296Zm-3.111,20.102c-1.132,0.25 -2.265,0.375 -3.398,0.375c-1.017,-0 -1.881,-0.192 -2.592,-0.576c-0.902,-0.48 -1.353,-1.181 -1.353,-2.103c-0,-1.094 0.806,-1.939 2.419,-2.534c1.19,-0.441 2.457,-0.672 3.801,-0.691l0.749,0.749l-2.621,0.547c-0.749,0.154 -1.401,0.422 -1.958,0.806c-0.71,0.48 -1.075,1.047 -1.094,1.699c-0.02,0.884 0.768,1.335 2.361,1.354c0.864,0.019 1.843,-0.134 2.938,-0.461c1.401,-0.403 2.131,-0.941 2.188,-1.613c-0.038,-0.172 -0.067,-0.316 -0.086,-0.431c0.806,0.422 1.219,0.854 1.238,1.295c0.02,0.672 -0.844,1.2 -2.592,1.584Zm-0.921,-13.478c-0.595,0 -1.191,0.115 -1.786,0.346c-0.749,0.288 -1.133,0.681 -1.152,1.181c-0.038,0.537 0.163,1.094 0.605,1.67c2.131,-0.403 3.216,-1.152 3.254,-2.246c0.02,-0.634 -0.288,-0.951 -0.921,-0.951Z" style="fill:#ae1e23;fill-rule:nonzero;stroke:#ae1e23;stroke-width:0.51px;stroke-linecap:butt;stroke-miterlimit:2;"/><path d="M166.844,421.365l-3.024,0l-0.72,10.311c-0.096,1.286 0.279,2.227 1.124,2.822c-0.519,-0.096 -1.114,-0.442 -1.786,-1.037c-0.806,-0.71 -1.19,-1.353 -1.152,-1.929l0.72,-10.167l-1.843,0l0.057,-1.296l6.682,0l-0.058,1.296Z" style="fill:#ae1e23;fill-rule:nonzero;stroke:#ae1e23;stroke-width:0.51px;stroke-linecap:butt;stroke-miterlimit:2;"/><path d="M164.224,415.634c-0.346,0.019 -0.639,-0.096 -0.879,-0.345c-0.24,-0.25 -0.36,-0.548 -0.36,-0.893c0,-0.807 0.413,-1.219 1.239,-1.239c0.883,-0.019 1.343,0.346 1.382,1.095c0.038,0.883 -0.423,1.344 -1.382,1.382Z" style="fill:#ae1e23;fill-rule:nonzero;stroke:#ae1e23;stroke-width:0.51px;stroke-linecap:butt;stroke-miterlimit:2;"/><path d="M188.415,421.365l-2.707,0l-0.72,10.599c-0.058,0.979 0.202,1.737 0.778,2.275c-1.824,-0.653 -2.708,-1.459 -2.65,-2.419l0.173,-2.477c-0.96,0.825 -2.141,1.238 -3.543,1.238c-1.324,0 -2.495,-0.576 -3.513,-1.728c-0.96,-1.094 -1.45,-2.313 -1.469,-3.657c-0.019,-0.999 0.336,-2.275 1.066,-3.831l-1.584,0l0.057,-1.296l14.17,0l-0.058,1.296Zm-10.425,0c-1.075,1.517 -1.613,3.226 -1.613,5.127c-0,0.806 0.264,1.473 0.792,2.001c0.528,0.528 1.195,0.792 2.001,0.792c1.671,0 3.092,-0.681 4.263,-2.045l0.432,-5.875l-5.875,0Z" style="fill:#ae1e23;fill-rule:nonzero;stroke:#ae1e23;stroke-width:0.51px;stroke-linecap:butt;stroke-miterlimit:2;"/><path d="M201.317,419.781c-0.633,-1.42 -1.488,-2.63 -2.563,-3.628c-1.267,-1.191 -2.582,-1.796 -3.945,-1.815c-1.037,-0.019 -1.93,0.25 -2.679,0.807c-0.845,0.614 -1.267,1.42 -1.267,2.419c0,1.421 0.451,2.256 1.354,2.505l2.534,0l0.317,1.296l-2.765,0l-0.749,10.599c-0.077,1.19 0.25,2.073 0.979,2.649c-0.518,-0.096 -1.104,-0.422 -1.756,-0.979c-0.768,-0.653 -1.133,-1.258 -1.095,-1.814l0.778,-10.455l-1.901,0l0.058,-1.296l2.505,0c-0.844,-0.691 -1.276,-1.574 -1.296,-2.649c-0.019,-1.344 0.461,-2.41 1.44,-3.197c0.883,-0.71 2.016,-1.066 3.399,-1.066c1.632,0 3.12,0.692 4.464,2.074c1.113,1.133 1.996,2.573 2.649,4.32l-0.461,0.23Z" style="fill:#ae1e23;fill-rule:nonzero;stroke:#ae1e23;stroke-width:0.51px;stroke-linecap:butt;stroke-miterlimit:2;"/><path d="M209.813,421.365l-2.592,0l-0.806,11.031c0.038,0.96 0.221,1.632 0.547,2.016c-1.67,-0.5 -2.477,-1.172 -2.419,-2.016l0.201,-2.65c-1.459,1.709 -3.273,2.563 -5.443,2.563c-1.036,0 -1.905,-0.398 -2.606,-1.195c-0.701,-0.797 -1.051,-1.714 -1.051,-2.75c-0,-1.786 0.557,-3.187 1.67,-4.205c1.056,-0.979 2.487,-1.469 4.291,-1.469c1.383,0 2.525,1.133 3.427,3.398l0.317,-4.723l-10.108,0l0.057,-1.296l14.573,0l-0.058,1.296Zm-7.776,3.053c-1.267,-0.019 -2.496,0.355 -3.686,1.123c-1.325,0.864 -1.987,1.901 -1.987,3.111c-0,0.633 0.206,1.137 0.619,1.512c0.413,0.374 0.946,0.561 1.598,0.561c1.133,0.019 2.42,-0.355 3.86,-1.123c1.632,-0.864 2.486,-1.805 2.563,-2.822c-0.192,-0.672 -0.562,-1.234 -1.109,-1.685c-0.547,-0.451 -1.166,-0.677 -1.858,-0.677Z" style="fill:#ae1e23;fill-rule:nonzero;stroke:#ae1e23;stroke-width:0.51px;stroke-linecap:butt;stroke-miterlimit:2;"/><path d="M223.81,421.365l-2.794,0l-0.777,10.743c-0.077,0.94 0.086,1.641 0.489,2.102c-0.461,-0.192 -0.912,-0.461 -1.353,-0.806c-0.692,-0.538 -1.018,-1.066 -0.98,-1.584l0.202,-2.42c-2.169,0.98 -4.243,2.295 -6.221,3.946c-0.883,0.749 -1.392,1.133 -1.526,1.152c-0.134,-0 -0.307,-0.278 -0.518,-0.835l-0.26,-0.663c1.498,-1.536 3.898,-3.072 7.2,-4.608c-0.672,-2.572 -1.516,-3.859 -2.534,-3.859c-0.96,0 -2.112,0.663 -3.456,1.987c-0.518,-0.614 -0.778,-1.142 -0.778,-1.583c0.903,-1.306 2.218,-1.968 3.946,-1.988c0.864,-0.019 1.642,0.653 2.333,2.016c0.48,0.941 0.835,2.007 1.065,3.197l0.864,-0.317l0.461,-6.48l-9.216,0l0.058,-1.296l13.852,0l-0.057,1.296Z" style="fill:#ae1e23;fill-rule:nonzero;stroke:#ae1e23;stroke-width:0.51px;stroke-linecap:butt;stroke-miterlimit:2;"/><path d="M236.712,419.781c-0.634,-1.42 -1.488,-2.63 -2.563,-3.628c-1.267,-1.191 -2.583,-1.796 -3.946,-1.815c-1.036,-0.019 -1.929,0.25 -2.678,0.807c-0.845,0.614 -1.267,1.42 -1.267,2.419c-0,1.421 0.451,2.256 1.353,2.505l2.535,0l0.317,1.296l-2.765,0l-0.749,10.599c-0.077,1.19 0.25,2.073 0.979,2.649c-0.518,-0.096 -1.104,-0.422 -1.757,-0.979c-0.768,-0.653 -1.132,-1.258 -1.094,-1.814l0.778,-10.455l-1.901,0l0.057,-1.296l2.506,0c-0.845,-0.691 -1.277,-1.574 -1.296,-2.649c-0.019,-1.344 0.461,-2.41 1.44,-3.197c0.883,-0.71 2.016,-1.066 3.398,-1.066c1.632,0 3.12,0.692 4.464,2.074c1.114,1.133 1.997,2.573 2.65,4.32l-0.461,0.23Z" style="fill:#ae1e23;fill-rule:nonzero;stroke:#ae1e23;stroke-width:0.51px;stroke-linecap:butt;stroke-miterlimit:2;"/><path d="M246.446,421.365l-2.736,0l-0.748,10.887c-0.058,0.806 0.134,1.468 0.576,1.987c-0.596,-0.231 -1.114,-0.538 -1.556,-0.922c-0.614,-0.518 -0.902,-1.017 -0.864,-1.497l0.346,-4.695l-1.555,0c-0.48,0 -1.018,0.087 -1.613,0.259c-0.115,1.536 -0.49,2.967 -1.123,4.292c-0.826,1.728 -1.882,2.592 -3.168,2.592c-0.845,-0 -1.642,-0.322 -2.391,-0.965c-0.748,-0.643 -1.132,-1.378 -1.151,-2.203c-0.02,-1.344 0.671,-2.506 2.073,-3.485c1.152,-0.807 2.477,-1.344 3.974,-1.613c0,-2.265 -0.105,-3.811 -0.316,-4.637l-5.559,0l0.058,-1.296l15.811,0l-0.058,1.296Zm-9.417,0c0.883,0.48 1.325,0.941 1.325,1.383l0.057,3.254c0.711,-0.115 1.306,-0.173 1.786,-0.173l1.325,0l0.345,-4.464l-4.838,0Zm-5.184,10.311c-0,0.403 0.163,0.724 0.489,0.964c0.327,0.24 0.692,0.37 1.095,0.389c0.883,0.019 1.603,-0.672 2.16,-2.073c0.384,-0.96 0.653,-2.045 0.806,-3.255c-1.209,0.231 -2.217,0.643 -3.024,1.239c-1.017,0.748 -1.526,1.66 -1.526,2.736Z" style="fill:#ae1e23;fill-rule:nonzero;stroke:#ae1e23;stroke-width:0.51px;stroke-linecap:butt;stroke-miterlimit:2;"/><path d="M260.414,421.365l-3.629,0c0.442,0.653 0.663,1.258 0.663,1.815c-0,0.883 -0.845,1.344 -2.535,1.382c-0.403,0 -1.104,-0.038 -2.102,-0.115l-2.074,-0.173c-0.288,-0.019 -0.561,0.082 -0.82,0.303c-0.26,0.22 -0.389,0.475 -0.389,0.763c-0,0.556 0.355,1.065 1.065,1.526c0.903,-0.365 2.007,-0.566 3.312,-0.605c1.152,-0.019 2.17,0.269 3.053,0.864c0.998,0.672 1.498,1.565 1.498,2.679c-0,0.921 -0.442,1.66 -1.325,2.217c-0.768,0.48 -1.642,0.72 -2.621,0.72c-0.461,-0.269 -0.864,-0.883 -1.209,-1.843c0.422,0.077 0.912,0.115 1.468,0.115c1.901,0.039 2.88,-0.557 2.938,-1.785c0.057,-1.172 -1.066,-1.767 -3.37,-1.786c-1.382,-0.019 -2.63,0.278 -3.744,0.893c-1.363,0.749 -2.054,1.766 -2.073,3.053c-0.019,1.152 0.777,2.102 2.39,2.851c1.267,0.595 2.554,0.912 3.859,0.95c0.576,0.019 1.124,-0.057 1.642,-0.23c-0.058,0.557 -0.365,0.835 -0.922,0.835c-1.92,0.019 -3.734,-0.346 -5.443,-1.094c-2.169,-0.941 -3.264,-2.237 -3.283,-3.888c-0.019,-1.46 1.075,-2.708 3.283,-3.744c-1.401,-0.672 -2.112,-1.536 -2.131,-2.592c0,-0.442 0.25,-0.835 0.749,-1.181c0.441,-0.326 0.893,-0.49 1.353,-0.49c0.5,0 1.244,0.048 2.232,0.144c0.989,0.096 1.733,0.144 2.232,0.144c1.383,0.02 2.074,-0.384 2.074,-1.209c0.019,-0.096 -0.029,-0.269 -0.144,-0.519l-9.821,0l0.058,-1.296l13.824,0l-0.058,1.296Z" style="fill:#ae1e23;fill-rule:nonzero;stroke:#ae1e23;stroke-width:0.51px;stroke-linecap:butt;stroke-miterlimit:2;"/><path d="M279.652,419.781c-0.633,-1.42 -1.488,-2.63 -2.563,-3.628c-1.267,-1.191 -2.582,-1.796 -3.946,-1.815c-1.036,-0.019 -1.929,0.25 -2.678,0.807c-0.845,0.614 -1.267,1.42 -1.267,2.419c-0,1.421 0.451,2.256 1.354,2.505l2.534,0l0.317,1.296l-2.765,0l-0.749,10.599c-0.077,1.19 0.25,2.073 0.979,2.649c-0.518,-0.096 -1.104,-0.422 -1.756,-0.979c-0.768,-0.653 -1.133,-1.258 -1.095,-1.814l0.778,-10.455l-1.901,0l0.058,-1.296l2.505,0c-0.845,-0.691 -1.277,-1.574 -1.296,-2.649c-0.019,-1.344 0.461,-2.41 1.44,-3.197c0.883,-0.71 2.016,-1.066 3.398,-1.066c1.632,0 3.12,0.692 4.464,2.074c1.114,1.133 1.997,2.573 2.65,4.32l-0.461,0.23Z" style="fill:#ae1e23;fill-rule:nonzero;stroke:#ae1e23;stroke-width:0.51px;stroke-linecap:butt;stroke-miterlimit:2;"/><path d="M288.148,421.365l-2.592,0l-0.806,11.031c0.038,0.96 0.22,1.632 0.547,2.016c-1.67,-0.5 -2.477,-1.172 -2.419,-2.016l0.201,-2.65c-1.459,1.709 -3.273,2.563 -5.443,2.563c-1.037,0 -1.905,-0.398 -2.606,-1.195c-0.701,-0.797 -1.051,-1.714 -1.051,-2.75c-0,-1.786 0.556,-3.187 1.67,-4.205c1.056,-0.979 2.486,-1.469 4.291,-1.469c1.383,0 2.525,1.133 3.427,3.398l0.317,-4.723l-10.109,0l0.058,-1.296l14.573,0l-0.058,1.296Zm-7.776,3.053c-1.267,-0.019 -2.496,0.355 -3.686,1.123c-1.325,0.864 -1.987,1.901 -1.987,3.111c-0,0.633 0.206,1.137 0.619,1.512c0.413,0.374 0.945,0.561 1.598,0.561c1.133,0.019 2.419,-0.355 3.859,-1.123c1.632,-0.864 2.487,-1.805 2.564,-2.822c-0.192,-0.672 -0.562,-1.234 -1.109,-1.685c-0.547,-0.451 -1.167,-0.677 -1.858,-0.677Z" style="fill:#ae1e23;fill-rule:nonzero;stroke:#ae1e23;stroke-width:0.51px;stroke-linecap:butt;stroke-miterlimit:2;"/><path d="M303.642,421.365l-2.793,0l-0.749,10.599c-0.058,0.883 0.23,1.651 0.864,2.304c-1.747,-0.538 -2.659,-1.594 -2.736,-3.168c-1.382,1.19 -3.034,1.785 -4.954,1.785c-0.979,0 -1.92,-0.269 -2.822,-0.806c-1.037,-0.595 -1.565,-1.354 -1.584,-2.275c-0.019,-0.653 0.278,-1.239 0.893,-1.757c0.518,-0.442 1.133,-0.759 1.843,-0.951c-1.709,-0.806 -2.573,-1.727 -2.592,-2.764c0,-0.423 0.192,-0.763 0.576,-1.023c0.384,-0.259 0.797,-0.379 1.238,-0.36l3.024,0.144c0.826,0.039 1.239,-0.316 1.239,-1.065l-0,-0.663l-6.797,0l0.058,-1.296l15.35,0l-0.058,1.296Zm-7.862,0c0.192,0.615 0.298,1.124 0.317,1.527c0.019,0.48 -0.202,0.873 -0.663,1.181c-0.46,0.307 -0.94,0.46 -1.44,0.46l-1.152,0c-0.134,0 -0.326,-0.024 -0.576,-0.072c-0.249,-0.048 -0.441,-0.072 -0.576,-0.072c-0.633,0 -0.94,0.269 -0.921,0.807c0.038,0.729 0.729,1.19 2.073,1.382l1.124,-0.144c0.268,0.288 0.403,0.691 0.403,1.21c-0.019,0.172 -0.192,0.297 -0.519,0.374c-0.23,0.058 -0.46,0.106 -0.691,0.144c-0.595,0.154 -1.152,0.355 -1.67,0.605c-1.037,0.499 -1.565,1.085 -1.584,1.757c-0.019,0.403 0.345,0.72 1.094,0.95c0.557,0.173 1.075,0.259 1.555,0.259c2.842,0.019 4.791,-0.72 5.847,-2.217l0.576,-8.151l-3.197,0Z" style="fill:#ae1e23;fill-rule:nonzero;stroke:#ae1e23;stroke-width:0.51px;stroke-linecap:butt;stroke-miterlimit:2;"/><path d="M315.335,419.954c-0.423,0.019 -1.027,-0.413 -1.815,-1.296l-2.361,-2.649c-0.48,0.499 -0.912,0.758 -1.296,0.777c-0.557,0.019 -1.142,-0.259 -1.757,-0.835c-0.614,-0.576 -0.921,-1.142 -0.921,-1.699c-0,-0.403 0.172,-0.735 0.518,-0.994c0.346,-0.259 0.73,-0.389 1.152,-0.389c0.384,0 1.229,0.72 2.534,2.16l2.736,3.024c0.807,0.884 1.555,1.364 2.247,1.44c-0.135,0.288 -0.48,0.442 -1.037,0.461Zm-6.048,-5.501c-0.634,0 -0.95,0.221 -0.95,0.663c-0,0.249 0.115,0.465 0.345,0.648c0.231,0.182 0.48,0.273 0.749,0.273c0.346,0 0.758,-0.211 1.238,-0.633c-0.441,-0.634 -0.902,-0.951 -1.382,-0.951Z" style="fill:#ae1e23;fill-rule:nonzero;stroke:#ae1e23;stroke-width:0.51px;stroke-linecap:butt;stroke-miterlimit:2;"/><text x="144.64px" y="434.412px" style="font-family:'KrutiDev500', 'Kruti Dev 500';font-size:28.8px;fill:#ae1e23;stroke:#ae1e23;stroke-width:0.51px;stroke-linecap:butt;stroke-miterlimit:2;"><tspan x="144.64px 166.902px 259.55px 302.778px " y="434.412px 434.412px 434.412px 434.412px ">&apos;  r</tspan></text><path d="M1.074,399.722l317.285,-0" style="fill:none;stroke:#b39343;stroke-width:1.7px;"/><path d="M1.074,454.99l317.285,-0" style="fill:none;stroke:#b39343;stroke-width:1.7px;"/></g></g></svg>