<?xml version="1.0" encoding="UTF-8" standalone="no"?><!DOCTYPE svg PUBLIC "-//W3C//DTD SVG 1.1//EN" "http://www.w3.org/Graphics/SVG/1.1/DTD/svg11.dtd"><svg width="100%" height="100%" viewBox="0 0 2819 2078" version="1.1" xmlns="http://www.w3.org/2000/svg" xmlns:xlink="http://www.w3.org/1999/xlink" xml:space="preserve" xmlns:serif="http://www.serif.com/" style="fill-rule:evenodd;clip-rule:evenodd;stroke-linejoin:round;stroke-miterlimit:2;"><g><text x="81.452px" y="274.943px" style="font-family:'Pakette-LightLysLight', 'Pakette Light Lys';font-size:358.88px;">Purwanchal</text><text x="2056.17px" y="658.886px" style="font-family:'Pakette-LightLysLight', 'Pakette Light Lys';font-size:358.88px;">Trust</text><text x="81.102px" y="658.886px" style="font-family:'Pakette-LightLysLight', 'Pakette Light Lys';font-size:358.88px;">Educational</text></g><g><path d="M918.056,823.747l-918.056,0l0,-96.047l918.056,-0l0,96.047Zm-64.031,442.62c-0,58.163 -17.609,112.99 -52.827,164.482c-35.217,51.492 -78.839,92.179 -130.865,122.061c-52.026,29.881 -100.716,44.822 -146.072,44.822c-41.087,0 -85.243,-16.808 -132.466,-50.425c-47.224,-33.617 -105.253,-82.974 -174.087,-148.074l0,678.738l-128.063,-67.234l-0,-1058.93l124.862,0l-0,195.297c9.604,-10.138 25.746,-27.213 48.424,-51.225c22.678,-24.012 48.691,-49.225 78.039,-75.638c29.347,-26.413 61.63,-49.891 96.848,-70.435c35.217,-20.544 68.3,-30.815 99.249,-30.815c29.348,-0 62.298,10.005 98.849,30.015c36.552,20.01 71.502,46.556 104.852,79.639c33.35,33.083 60.564,70.569 81.641,112.456c21.077,41.888 31.616,83.642 31.616,125.262Zm-79.24,-92.846c0,-12.806 -5.202,-30.682 -15.608,-53.626c-10.405,-22.945 -26.279,-43.889 -47.623,-62.832c-21.344,-18.942 -47.757,-28.414 -79.24,-28.414c-35.217,0 -74.703,11.739 -118.459,35.218c-43.755,23.478 -85.375,52.959 -124.862,88.444c-39.486,35.484 -71.902,71.769 -97.248,108.854c-25.346,37.085 -38.019,67.367 -38.019,90.845c0,16.542 9.338,33.483 28.014,50.825c18.676,17.342 42.688,32.016 72.036,44.022c29.348,12.006 58.429,18.009 87.243,18.009c48.024,0 92.98,-10.272 134.867,-30.815c41.888,-20.544 77.372,-46.023 106.453,-76.438c29.081,-30.415 51.759,-62.298 68.034,-95.648c16.275,-33.35 24.412,-62.831 24.412,-88.444Z" style="fill:#5f5330;fill-rule:nonzero;"/><path d="M1745.67,823.747l-218.509,0l0,157.679c14.407,3.201 26.413,7.07 36.018,11.606c9.605,4.535 15.741,7.87 18.409,10.004l0,94.447c-63.498,-21.877 -129.664,-32.816 -198.498,-32.816c-46.957,0 -97.916,9.605 -152.876,28.814c-54.961,19.21 -83.242,49.092 -84.843,89.645c0,42.688 60.564,64.032 181.691,64.032c10.138,-0 27.48,-0.667 52.026,-2.001c24.545,-1.334 40.553,-2.268 48.024,-2.802l-0,73.637c-38.42,1.067 -82.708,3.068 -132.867,6.003c-50.158,2.935 -95.114,12.673 -134.867,29.215c-39.753,16.541 -59.629,43.488 -59.629,80.84c-0,30.949 18.276,56.161 54.827,75.637c36.552,19.477 77.772,29.215 123.661,29.215c92.313,-0 173.553,-21.211 243.722,-63.632c70.168,-42.421 129.264,-98.048 177.288,-166.883l-0,202.501c-56.562,35.751 -111.256,59.229 -164.082,70.435c-52.826,11.206 -106.719,16.808 -161.68,16.808c-53.894,0 -114.59,-8.137 -182.091,-24.412c-67.5,-16.275 -125.395,-39.753 -173.686,-70.435c-48.291,-30.682 -72.436,-66.299 -72.436,-106.853c-0,-41.087 15.608,-73.637 46.823,-97.648c31.216,-24.012 67.1,-45.623 107.654,-64.833c-21.344,-12.272 -39.086,-22.411 -53.227,-30.415c-14.14,-8.004 -25.479,-17.609 -34.017,-28.814c-8.537,-11.206 -12.806,-25.88 -12.806,-44.022c0,-35.218 14.274,-64.699 42.821,-88.444c28.548,-23.745 64.166,-41.754 106.853,-54.027c42.688,-12.273 86.177,-20.81 130.465,-25.613c44.289,-4.802 85.91,-7.203 124.862,-7.203l0,-129.665l-513.055,0l0,-96.047l854.025,-0l-0,96.047Z" style="fill:#5f5330;fill-rule:nonzero;"/><path d="M2818.79,823.747l-780.178,0l-0,644.321c-0,18.676 6.536,36.818 19.609,54.427c13.073,17.609 27.347,26.413 42.822,26.413c79.506,-0 119.259,-82.174 119.259,-246.523l160.88,92.046c-26.146,58.162 -61.764,106.586 -106.853,145.272c-45.089,38.686 -104.452,58.029 -178.089,58.029c-36.818,-0.533 -70.568,-10.272 -101.25,-29.214c-30.682,-18.943 -55.094,-43.222 -73.237,-72.837c-18.142,-29.614 -27.213,-59.096 -27.213,-88.444l-0,-583.49l-167.283,0l-0,-96.047l167.283,-0l-0,-727.7l144.072,100.05l-0,627.65l780.178,-0l0,96.047Z" style="fill:#5f5330;fill-rule:nonzero;"/></g></svg>