<?xml version="1.0" encoding="UTF-8" standalone="no"?><!DOCTYPE svg PUBLIC "-//W3C//DTD SVG 1.1//EN" "http://www.w3.org/Graphics/SVG/1.1/DTD/svg11.dtd"><svg width="100%" height="100%" viewBox="0 0 1197 819" version="1.1" xmlns="http://www.w3.org/2000/svg" xmlns:xlink="http://www.w3.org/1999/xlink" xml:space="preserve" xmlns:serif="http://www.serif.com/" style="fill-rule:evenodd;clip-rule:evenodd;stroke-linejoin:round;stroke-miterlimit:2;"><g><path d="M614.445,391.934l-178.261,-178.261l156.375,-156.375c43.502,-43.503 118.758,-38.883 167.951,10.31c49.193,49.192 53.812,124.449 10.31,167.951l-156.375,156.375Z" style="fill:#b72026;"/><path d="M329.3,519.551l28.673,-144.141l-154.437,-0l-28.673,144.141l-144.142,0l-30.721,154.437l144.141,0l-28.673,144.141l154.437,0l28.673,-144.141l144.141,0l30.722,-154.437l-144.141,0Z" style="fill:#fff;"/><path d="M329.3,519.551l28.673,-144.141l-154.437,-0l-28.673,144.141l-144.142,0l-30.721,154.437l144.141,0l-28.673,144.141l154.437,0l28.673,-144.141l144.141,0l30.722,-154.437l-144.141,0Zm-14.304,-2.845c-0.851,4.282 0.26,8.721 3.03,12.097c2.77,3.375 6.907,5.332 11.274,5.332l126.371,-0c-0,-0 -24.92,125.27 -24.92,125.27c0,-0 -132.173,-0 -132.173,-0c-6.957,-0 -12.945,4.914 -14.303,11.738l-26.338,132.403c-0,0 -124.699,0 -124.699,0c0,0 25.206,-126.713 25.206,-126.713c0.852,-4.282 -0.26,-8.721 -3.03,-12.096c-2.77,-3.376 -6.906,-5.332 -11.273,-5.332l-126.371,-0c0,-0 24.919,-125.27 24.919,-125.27c0,-0 132.174,-0 132.174,-0c6.957,-0 12.945,-4.915 14.303,-11.739l26.338,-132.403c-0,0 124.699,0 124.699,0c-0,0 -25.207,126.713 -25.207,126.713Z" style="fill:#b72025;"/><g><path d="M525.934,653.772l24.51,-124.186l25.511,-0l-24.425,124.186l-25.596,-0Z" style="fill:#b72025;fill-rule:nonzero;"/><path d="M593.153,563.809l23.054,-0l-2.231,11.69c5.703,-4.97 11.042,-8.514 16.017,-10.631c4.975,-2.118 10.231,-3.177 15.768,-3.177c7.402,0 13.262,2.118 17.58,6.353c4.317,4.236 6.519,9.855 6.604,16.858c0.038,3.162 -0.821,9.148 -2.579,17.958l-9.975,50.912l-24.325,-0l10.058,-51.081c1.489,-7.624 2.225,-12.17 2.207,-13.638c-0.037,-3.106 -0.985,-5.549 -2.843,-7.328c-1.858,-1.779 -4.426,-2.668 -7.703,-2.668c-3.56,-0 -7.497,1.496 -11.812,4.489c-4.314,2.993 -7.684,6.947 -10.111,11.86c-1.765,3.501 -3.713,10.645 -5.842,21.432l-7.263,36.934l-24.325,-0l17.721,-89.963Z" style="fill:#b72025;fill-rule:nonzero;"/><path d="M677.681,628.612l23.517,-3.727c2.151,4.97 4.793,8.485 7.926,10.547c3.133,2.061 7.383,3.092 12.751,3.092c5.537,-0 9.958,-1.243 13.261,-3.728c2.296,-1.694 3.43,-3.755 3.4,-6.184c-0.02,-1.637 -0.631,-3.106 -1.833,-4.405c-1.259,-1.242 -4.639,-2.767 -10.142,-4.574c-14.75,-4.857 -23.894,-8.697 -27.432,-11.521c-5.534,-4.404 -8.345,-10.165 -8.431,-17.281c-0.087,-7.115 2.494,-13.243 7.743,-18.382c7.315,-7.172 18.262,-10.758 32.84,-10.758c11.583,0 20.367,2.118 26.351,6.353c5.985,4.236 9.812,9.968 11.482,17.197l-22.413,3.896c-1.226,-3.275 -3.177,-5.732 -5.853,-7.37c-3.643,-2.202 -8.007,-3.303 -13.093,-3.303c-5.085,-0 -8.733,0.847 -10.945,2.541c-2.211,1.694 -3.303,3.643 -3.277,5.845c0.028,2.259 1.181,4.123 3.459,5.591c1.423,0.904 5.991,2.485 13.703,4.744c11.908,3.445 19.888,6.833 23.94,10.165c5.708,4.687 8.602,10.335 8.682,16.942c0.104,8.528 -3.394,15.926 -10.494,22.194c-7.1,6.269 -17.176,9.403 -30.228,9.403c-12.996,0 -23.069,-2.386 -30.218,-7.158c-7.15,-4.772 -12.048,-11.478 -14.696,-20.119Z" style="fill:#b72025;fill-rule:nonzero;"/><path d="M782.888,581.852l3.51,-18.043l11.866,-0l2.791,-14.401l27.681,-16.773l-6.147,31.174l14.832,-0l-3.509,18.043l-14.918,0l-7.423,37.696c-1.33,6.834 -1.989,10.73 -1.977,11.69c0.023,1.864 0.634,3.318 1.833,4.363c1.199,1.045 3.353,1.567 6.46,1.567c1.074,0 3.756,-0.197 8.045,-0.593l-3.595,18.044c-4.171,0.847 -8.46,1.27 -12.867,1.27c-8.589,0 -14.853,-1.652 -18.792,-4.955c-3.938,-3.304 -5.944,-7.893 -6.015,-13.766c-0.034,-2.767 0.934,-9.149 2.903,-19.144l7.103,-36.172l-11.781,0Z" style="fill:#b72025;fill-rule:nonzero;"/><path d="M859.889,529.586l24.326,-0l-4.309,22.024l-24.326,0l4.309,-22.024Zm-6.703,34.223l24.325,-0l-17.721,89.963l-24.326,-0l17.722,-89.963Z" style="fill:#b72025;fill-rule:nonzero;"/><path d="M888.919,581.852l3.509,-18.043l11.866,-0l2.792,-14.401l27.68,-16.773l-6.147,31.174l14.833,-0l-3.51,18.043l-14.917,0l-7.424,37.696c-1.33,6.834 -1.988,10.73 -1.977,11.69c0.023,1.864 0.634,3.318 1.833,4.363c1.199,1.045 3.353,1.567 6.461,1.567c1.073,0 3.755,-0.197 8.044,-0.593l-3.594,18.044c-4.171,0.847 -8.46,1.27 -12.868,1.27c-8.588,0 -14.852,-1.652 -18.791,-4.955c-3.939,-3.304 -5.944,-7.893 -6.016,-13.766c-0.033,-2.767 0.934,-9.149 2.903,-19.144l7.104,-36.172l-11.781,0Z" style="fill:#b72025;fill-rule:nonzero;"/><path d="M959.047,563.809l24.325,-0l-10.455,53.283c-1.278,6.381 -1.908,10.363 -1.889,11.944c0.032,2.598 1.019,4.828 2.963,6.692c1.944,1.864 4.413,2.796 7.408,2.796c2.147,-0 4.261,-0.41 6.342,-1.229c2.081,-0.819 4.213,-2.061 6.396,-3.727c2.183,-1.666 4.138,-3.572 5.863,-5.718c1.726,-2.146 3.33,-4.97 4.813,-8.471c1.042,-2.598 2.149,-6.833 3.321,-12.707l8.463,-42.863l24.325,-0l-17.722,89.963l-22.715,-0l2.395,-12.199c-9.829,9.544 -20.592,14.316 -32.288,14.316c-7.402,0 -13.248,-2.117 -17.537,-6.353c-4.29,-4.236 -6.477,-9.911 -6.564,-17.027c-0.038,-3.106 0.848,-9.29 2.656,-18.552l9.9,-50.148Z" style="fill:#b72025;fill-rule:nonzero;"/><path d="M1052.75,581.852l3.51,-18.043l11.865,-0l2.792,-14.401l27.681,-16.773l-6.147,31.174l14.832,-0l-3.51,18.043l-14.917,0l-7.424,37.696c-1.329,6.834 -1.988,10.73 -1.977,11.69c0.023,1.864 0.634,3.318 1.833,4.363c1.2,1.045 3.353,1.567 6.461,1.567c1.073,0 3.755,-0.197 8.045,-0.593l-3.595,18.044c-4.171,0.847 -8.46,1.27 -12.868,1.27c-8.588,0 -14.852,-1.652 -18.791,-4.955c-3.939,-3.304 -5.944,-7.893 -6.016,-13.766c-0.033,-2.767 0.934,-9.149 2.904,-19.144l7.103,-36.172l-11.781,0Z" style="fill:#b72025;fill-rule:nonzero;"/><path d="M1192.51,616.329l-61.025,0c-0.045,0.96 -0.064,1.695 -0.058,2.203c0.073,5.986 1.841,10.815 5.304,14.485c3.463,3.671 7.653,5.507 12.569,5.507c8.08,-0 14.329,-4.179 18.748,-12.538l21.826,3.643c-4.131,8.753 -9.716,15.318 -16.754,19.695c-7.038,4.377 -14.964,6.565 -23.779,6.565c-12.092,0 -21.97,-3.826 -29.635,-11.478c-7.664,-7.652 -11.573,-17.775 -11.726,-30.369c-0.15,-12.311 3.135,-23.267 9.855,-32.868c9.166,-12.989 22.393,-19.483 39.684,-19.483c11.018,0 19.818,3.403 26.398,10.208c6.581,6.805 9.946,16.335 10.095,28.589c0.072,5.874 -0.429,11.154 -1.502,15.841Zm-20.692,-14.824c0.044,-1.073 0.062,-1.892 0.055,-2.457c-0.081,-6.663 -1.639,-11.661 -4.674,-14.993c-3.036,-3.332 -7.068,-4.998 -12.096,-4.998c-5.029,-0 -9.513,1.892 -13.45,5.675c-3.938,3.784 -6.568,9.375 -7.89,16.773l38.055,0Z" style="fill:#b72025;fill-rule:nonzero;"/></g><g><g><path d="M507.001,756.042c-0.15,-12.391 3.372,-22.65 10.568,-30.778c5.938,-6.694 13.791,-10.04 23.557,-10.04c7.654,-0 13.852,2.39 18.594,7.171c4.742,4.781 7.163,11.236 7.262,19.363c0.089,7.292 -1.304,14.075 -4.178,20.35c-2.873,6.275 -7.01,11.086 -12.411,14.433c-5.401,3.346 -11.111,5.02 -17.13,5.02c-4.943,-0 -9.451,-1.056 -13.523,-3.168c-4.071,-2.111 -7.197,-5.099 -9.377,-8.964c-2.18,-3.865 -3.3,-8.327 -3.362,-13.387Zm10.81,-1.076c0.073,5.976 1.563,10.508 4.471,13.596c2.908,3.088 6.574,4.632 10.999,4.632c2.312,-0 4.598,-0.468 6.859,-1.405c2.261,-0.936 4.356,-2.36 6.286,-4.273c1.931,-1.912 3.568,-4.093 4.914,-6.544c1.345,-2.45 2.419,-5.09 3.222,-7.918c1.188,-3.945 1.76,-7.73 1.716,-11.355c-0.07,-5.738 -1.569,-10.19 -4.498,-13.357c-2.929,-3.168 -6.585,-4.752 -10.97,-4.752c-3.389,0 -6.468,0.807 -9.239,2.421c-2.771,1.613 -5.264,3.974 -7.478,7.082c-2.215,3.107 -3.825,6.723 -4.831,10.847c-1.007,4.123 -1.49,7.799 -1.451,11.026Z" style="fill:#b72025;fill-rule:nonzero;"/><path d="M574.983,780.126l10.87,-55.101l-9.687,-0l1.633,-8.367l9.686,-0l1.744,-9.024c0.902,-4.503 1.849,-7.75 2.842,-9.742c0.992,-1.992 2.626,-3.635 4.903,-4.93c2.276,-1.295 5.388,-1.943 9.334,-1.943c2.751,0 6.744,0.578 11.98,1.734l-1.858,9.442c-3.679,-0.956 -6.754,-1.434 -9.226,-1.434c-2.113,-0 -3.711,0.528 -4.794,1.584c-1.084,1.055 -2,3.555 -2.749,7.5l-1.353,6.813l12.079,-0l-1.632,8.367l-12.079,-0l-10.87,55.101l-10.823,0Z" style="fill:#b72025;fill-rule:nonzero;"/></g><g><path d="M642.731,780.126l17.292,-87.613l36.595,0c6.338,0 11.101,0.728 14.287,2.182c3.187,1.454 5.839,3.944 7.954,7.47c2.116,3.526 3.201,7.481 3.254,11.863c0.044,3.626 -0.648,7.311 -2.078,11.056c-1.429,3.746 -3.255,6.833 -5.478,9.264c-2.223,2.43 -4.483,4.263 -6.78,5.498c-2.297,1.235 -4.757,2.151 -7.381,2.749c-5.605,1.315 -11.277,1.972 -17.018,1.972l-21.945,0l-6.982,35.559l-11.72,0Zm20.674,-45.479l19.314,-0c7.495,-0 12.986,-0.807 16.475,-2.421c3.488,-1.613 6.268,-4.074 8.341,-7.381c2.072,-3.306 3.086,-6.813 3.041,-10.518c-0.035,-2.869 -0.621,-5.209 -1.76,-7.022c-1.138,-1.813 -2.729,-3.148 -4.772,-4.004c-2.044,-0.857 -5.955,-1.285 -11.736,-1.285l-22.483,-0l-6.42,32.631Z" style="fill-rule:nonzero;"/><path d="M641.3,779.844c-0.084,0.428 0.028,0.871 0.305,1.208c0.277,0.337 0.69,0.533 1.126,0.533l11.72,-0c0.697,-0 1.297,-0.494 1.431,-1.178l6.751,-34.381c0,-0 20.745,-0 20.745,-0c5.852,-0 11.634,-0.67 17.348,-2.01c2.752,-0.628 5.332,-1.59 7.742,-2.886c2.425,-1.304 4.818,-3.232 7.165,-5.798c2.335,-2.554 4.263,-5.793 5.765,-9.728c1.498,-3.927 2.22,-7.792 2.173,-11.593c-0.056,-4.654 -1.214,-8.852 -3.461,-12.596c-2.284,-3.806 -5.16,-6.477 -8.599,-8.047c-3.323,-1.516 -8.284,-2.313 -14.893,-2.313l-36.595,0c-0.697,0 -1.296,0.493 -1.431,1.176l-17.292,87.613Zm1.431,0.282l17.292,-87.613l36.595,0c6.338,0 11.101,0.728 14.287,2.182c3.187,1.454 5.839,3.944 7.954,7.47c2.116,3.526 3.201,7.481 3.254,11.863c0.044,3.626 -0.648,7.311 -2.078,11.056c-1.429,3.746 -3.255,6.833 -5.478,9.264c-2.223,2.43 -4.483,4.263 -6.78,5.498c-2.297,1.235 -4.757,2.151 -7.381,2.749c-5.605,1.315 -11.277,1.972 -17.018,1.972l-21.945,0l-6.982,35.559l-11.72,0Zm20.674,-45.479l19.314,-0c7.495,-0 12.986,-0.807 16.475,-2.421c3.488,-1.613 6.268,-4.074 8.341,-7.381c2.072,-3.306 3.086,-6.813 3.041,-10.518c-0.035,-2.869 -0.621,-5.209 -1.76,-7.022c-1.138,-1.813 -2.729,-3.148 -4.772,-4.004c-2.044,-0.857 -5.955,-1.285 -11.736,-1.285l-22.483,-0l-6.42,32.631Zm1.774,-1.459l5.846,-29.714c-0,0 21.283,0 21.283,0c5.5,0 9.228,0.357 11.172,1.172c1.755,0.735 3.124,1.878 4.101,3.434c1.015,1.616 1.506,3.709 1.537,6.265c0.042,3.427 -0.902,6.668 -2.819,9.726c-1.918,3.06 -4.49,5.338 -7.718,6.832c-3.357,1.553 -8.649,2.285 -15.862,2.285l-17.54,0Z"/><path d="M723.216,780.126l17.232,-87.613l10.823,0l-6.587,33.647c3.979,-3.904 7.692,-6.703 11.139,-8.397c3.448,-1.693 7.005,-2.539 10.673,-2.539c5.262,-0 9.365,1.384 12.309,4.153c2.943,2.769 4.443,6.425 4.498,10.967c0.027,2.231 -0.561,6.335 -1.764,12.311l-7.377,37.471l-10.823,0l7.605,-38.427c1.088,-5.578 1.623,-9.084 1.606,-10.519c-0.025,-2.071 -0.763,-3.765 -2.214,-5.08c-1.452,-1.314 -3.532,-1.972 -6.243,-1.972c-3.907,0 -7.622,1.026 -11.145,3.078c-3.522,2.052 -6.269,4.861 -8.239,8.427c-1.969,3.566 -3.743,9.313 -5.321,17.241l-5.349,27.252l-10.823,0Z" style="fill-rule:nonzero;"/><path d="M721.785,779.845c-0.084,0.428 0.028,0.871 0.305,1.208c0.277,0.337 0.69,0.532 1.126,0.532l10.823,-0c0.697,-0 1.297,-0.494 1.431,-1.178l5.349,-27.25c1.538,-7.731 3.246,-13.342 5.167,-16.819c1.84,-3.331 4.406,-5.955 7.696,-7.872c3.292,-1.917 6.761,-2.879 10.411,-2.879c2.277,-0 4.044,0.49 5.263,1.594c1.146,1.038 1.716,2.381 1.736,4.017c0.017,1.394 -0.522,4.799 -1.579,10.22c-0,-0 -7.605,38.425 -7.605,38.425c-0.084,0.428 0.027,0.872 0.304,1.209c0.277,0.337 0.69,0.533 1.127,0.533l10.823,-0c0.697,-0 1.296,-0.493 1.431,-1.177l7.377,-37.469c1.232,-6.122 1.819,-10.327 1.791,-12.613c-0.06,-4.979 -1.73,-8.976 -4.957,-12.011c-3.187,-2.998 -7.611,-4.55 -13.308,-4.55c-3.888,0 -7.661,0.894 -11.315,2.689c-2.59,1.272 -5.328,3.142 -8.21,5.617c-0.001,0.001 5.731,-29.277 5.731,-29.277c0.084,-0.428 -0.028,-0.871 -0.305,-1.207c-0.277,-0.337 -0.69,-0.532 -1.126,-0.532l-10.823,0c-0.697,0 -1.297,0.493 -1.431,1.177l-17.232,87.613Zm1.431,0.281l17.232,-87.613l10.823,0l-6.587,33.647c3.979,-3.904 7.692,-6.703 11.139,-8.397c3.448,-1.693 7.005,-2.539 10.673,-2.539c5.262,-0 9.365,1.384 12.309,4.153c2.943,2.769 4.443,6.425 4.498,10.967c0.027,2.231 -0.561,6.335 -1.764,12.311l-7.377,37.471l-10.823,0l7.605,-38.427c1.088,-5.578 1.623,-9.084 1.606,-10.519c-0.025,-2.071 -0.763,-3.765 -2.214,-5.08c-1.452,-1.314 -3.532,-1.972 -6.243,-1.972c-3.907,0 -7.622,1.026 -11.145,3.078c-3.522,2.052 -6.269,4.861 -8.239,8.427c-1.969,3.566 -3.743,9.313 -5.321,17.241l-5.349,27.252l-10.823,0Z"/><path d="M834.041,772.238c-3.708,3.227 -7.287,5.588 -10.737,7.082c-3.45,1.494 -7.148,2.241 -11.095,2.241c-5.86,-0 -10.605,-1.723 -14.234,-5.17c-3.63,-3.446 -5.477,-7.859 -5.543,-13.237c-0.043,-3.546 0.726,-6.684 2.307,-9.413c1.582,-2.729 3.698,-4.921 6.349,-6.574c2.65,-1.653 5.905,-2.839 9.763,-3.556c2.426,-0.478 7.035,-0.857 13.829,-1.135c6.793,-0.279 11.658,-0.996 14.593,-2.152c0.802,-2.948 1.191,-5.399 1.167,-7.351c-0.031,-2.51 -0.972,-4.482 -2.823,-5.916c-2.535,-1.992 -6.215,-2.989 -11.039,-2.989c-4.544,0 -8.249,1.006 -11.115,3.019c-2.865,2.012 -4.933,4.87 -6.204,8.576l-10.954,-0.957c2.156,-6.295 5.635,-11.116 10.438,-14.462c4.803,-3.347 10.891,-5.02 18.266,-5.02c7.853,-0 14.095,1.872 18.725,5.617c3.542,2.789 5.34,6.415 5.394,10.877c0.041,3.387 -0.409,7.311 -1.352,11.774l-3.336,15.777c-1.055,5.02 -1.563,9.104 -1.525,12.252c0.024,1.992 0.498,4.86 1.42,8.605l-10.942,0c-0.624,-2.071 -1.074,-4.701 -1.352,-7.888Zm3.711,-24.264c-1.508,0.597 -3.126,1.056 -4.857,1.374c-1.73,0.319 -4.626,0.658 -8.687,1.016c-6.292,0.558 -10.728,1.265 -13.309,2.122c-2.581,0.857 -4.518,2.221 -5.81,4.094c-1.293,1.872 -1.926,3.944 -1.898,6.215c0.037,3.028 1.114,5.518 3.23,7.47c2.117,1.953 5.108,2.929 8.975,2.929c3.588,-0 7.025,-0.946 10.31,-2.839c3.286,-1.892 5.865,-4.532 7.737,-7.918c1.873,-3.387 3.309,-8.208 4.309,-14.463Z" style="fill-rule:nonzero;"/><path d="M832.885,775.096c0.281,2.108 0.652,3.925 1.111,5.45c0.185,0.617 0.753,1.039 1.397,1.039l10.942,-0c0.448,-0 0.872,-0.206 1.148,-0.559c0.276,-0.353 0.375,-0.813 0.268,-1.248c-0.887,-3.602 -1.355,-6.359 -1.378,-8.275c-0.037,-3.066 0.466,-7.043 1.494,-11.934l3.336,-15.776c0.968,-4.583 1.425,-8.614 1.383,-12.093c-0.06,-4.921 -2.039,-8.922 -5.943,-11.999c-4.859,-3.927 -11.395,-5.936 -19.634,-5.936c-7.715,0 -14.076,1.781 -19.1,5.282c-5.047,3.517 -8.718,8.572 -10.984,15.187c-0.145,0.424 -0.087,0.892 0.158,1.268c0.244,0.376 0.648,0.618 1.095,0.657l10.954,0.956c0.668,0.059 1.289,-0.346 1.507,-0.979c1.162,-3.39 3.041,-6.015 5.662,-7.856c2.647,-1.859 6.079,-2.753 10.277,-2.753c4.423,-0 7.813,0.85 10.138,2.676c0.003,0.002 0.005,0.004 0.008,0.006c1.493,1.157 2.233,2.757 2.258,4.782c0.02,1.683 -0.294,3.757 -0.924,6.223c-2.887,0.97 -7.369,1.555 -13.438,1.804c-6.895,0.284 -11.576,0.676 -14.043,1.161c-4.056,0.754 -7.474,2.012 -10.261,3.751c-2.855,1.781 -5.135,4.14 -6.838,7.08c-1.708,2.947 -2.551,6.332 -2.504,10.161c0.071,5.804 2.08,10.559 5.997,14.278c3.888,3.692 8.96,5.57 15.238,5.57c4.153,0 8.044,-0.789 11.675,-2.361c2.91,-1.26 5.912,-3.112 9.001,-5.562l0,0Zm1.156,-2.858c-3.708,3.227 -7.287,5.588 -10.737,7.082c-3.45,1.494 -7.148,2.241 -11.095,2.241c-5.86,-0 -10.605,-1.723 -14.234,-5.17c-3.63,-3.446 -5.477,-7.859 -5.543,-13.237c-0.043,-3.546 0.726,-6.684 2.307,-9.413c1.582,-2.729 3.698,-4.921 6.349,-6.574c2.65,-1.653 5.905,-2.839 9.763,-3.556c2.426,-0.478 7.035,-0.857 13.829,-1.135c6.793,-0.279 11.658,-0.996 14.593,-2.152c0.802,-2.948 1.191,-5.399 1.167,-7.351c-0.031,-2.51 -0.972,-4.482 -2.823,-5.916c-2.535,-1.992 -6.215,-2.989 -11.039,-2.989c-4.544,0 -8.249,1.006 -11.115,3.019c-2.865,2.012 -4.933,4.87 -6.204,8.576l-10.954,-0.957c2.156,-6.295 5.635,-11.116 10.438,-14.462c4.803,-3.347 10.891,-5.02 18.266,-5.02c7.853,-0 14.095,1.872 18.725,5.617c3.542,2.789 5.34,6.415 5.394,10.877c0.041,3.387 -0.409,7.311 -1.352,11.774l-3.336,15.777c-1.055,5.02 -1.563,9.104 -1.525,12.252c0.024,1.992 0.498,4.86 1.42,8.605l-10.942,0c-0.624,-2.071 -1.074,-4.701 -1.352,-7.888Zm3.711,-24.264c-1.508,0.597 -3.126,1.056 -4.857,1.374c-1.73,0.319 -4.626,0.658 -8.687,1.016c-6.292,0.558 -10.728,1.265 -13.309,2.122c-2.581,0.857 -4.518,2.221 -5.81,4.094c-1.293,1.872 -1.926,3.944 -1.898,6.215c0.037,3.028 1.114,5.518 3.23,7.47c2.117,1.953 5.108,2.929 8.975,2.929c3.588,-0 7.025,-0.946 10.31,-2.839c3.286,-1.892 5.865,-4.532 7.737,-7.918c1.873,-3.387 3.309,-8.208 4.309,-14.463Zm-1.859,2.169c-0.93,4.896 -2.163,8.761 -3.726,11.588c-1.74,3.147 -4.135,5.602 -7.189,7.36c-3.054,1.76 -6.247,2.645 -9.582,2.645c-3.433,-0 -6.107,-0.809 -7.986,-2.542c-1.817,-1.676 -2.729,-3.818 -2.761,-6.417c-0.024,-1.961 0.523,-3.751 1.64,-5.369c1.124,-1.629 2.825,-2.793 5.069,-3.538c2.516,-0.835 6.844,-1.509 12.978,-2.053c4.125,-0.364 7.066,-0.711 8.824,-1.034c0.942,-0.174 1.853,-0.387 2.733,-0.639l0,-0.001Z"/><path d="M859.43,780.126l12.503,-63.468l9.567,-0l-2.533,12.968c3.209,-4.9 6.364,-8.526 9.465,-10.876c3.101,-2.351 6.286,-3.526 9.554,-3.526c2.153,-0 4.813,0.776 7.982,2.33l-4.303,10.041c-1.89,-1.355 -3.951,-2.032 -6.184,-2.032c-3.787,-0 -7.648,2.111 -11.583,6.334c-3.935,4.224 -6.972,11.814 -9.111,22.77l-5.072,25.459l-10.285,0Z" style="fill-rule:nonzero;"/><path d="M858,779.845c-0.085,0.428 0.027,0.871 0.304,1.208c0.277,0.337 0.69,0.532 1.126,0.532l10.285,-0c0.696,-0 1.295,-0.491 1.43,-1.174l5.073,-25.464c2.07,-10.6 4.94,-17.97 8.747,-22.055c3.59,-3.853 7.061,-5.871 10.516,-5.871c1.927,-0 3.703,0.59 5.334,1.759c0.359,0.257 0.816,0.338 1.242,0.219c0.425,-0.119 0.774,-0.424 0.948,-0.83l4.303,-10.04c0.306,-0.714 -0.001,-1.542 -0.698,-1.884c-3.419,-1.677 -6.301,-2.48 -8.624,-2.48c-3.567,0 -7.051,1.257 -10.435,3.822c-1.939,1.471 -3.904,3.419 -5.889,5.851c-0,0.001 1.27,-6.501 1.27,-6.501c0.083,-0.427 -0.029,-0.87 -0.306,-1.206c-0.277,-0.337 -0.69,-0.532 -1.126,-0.532l-9.567,0c-0.697,0 -1.296,0.493 -1.431,1.177l-12.502,63.469Zm1.43,0.281l12.503,-63.468l9.567,-0l-2.533,12.968c3.209,-4.9 6.364,-8.526 9.465,-10.876c3.101,-2.351 6.286,-3.526 9.554,-3.526c2.153,-0 4.813,0.776 7.982,2.33l-4.303,10.041c-1.89,-1.355 -3.951,-2.032 -6.184,-2.032c-3.787,-0 -7.648,2.111 -11.583,6.334c-3.935,4.224 -6.972,11.814 -9.111,22.77l-5.072,25.459l-10.285,0Z"/><path d="M900.151,780.126l12.503,-63.468l10.823,-0l-2.085,10.458c3.971,-4.502 7.531,-7.609 10.679,-9.323c3.149,-1.713 6.576,-2.569 10.284,-2.569c3.946,-0 7.258,1.045 9.934,3.137c2.676,2.092 4.456,5.01 5.339,8.755c3.18,-3.984 6.542,-6.962 10.086,-8.934c3.544,-1.972 7.289,-2.958 11.236,-2.958c5.302,-0 9.293,1.255 11.975,3.765c2.681,2.51 4.049,6.036 4.105,10.578c0.023,1.952 -0.396,5.179 -1.258,9.681l-8.053,40.878l-10.823,0l8.219,-41.953c0.716,-3.427 1.065,-5.877 1.047,-7.351c-0.025,-2.072 -0.703,-3.706 -2.033,-4.901c-1.33,-1.195 -3.191,-1.793 -5.582,-1.793c-3.229,0 -6.506,0.976 -9.831,2.929c-3.325,1.952 -5.895,4.512 -7.71,7.679c-1.815,3.168 -3.38,8.038 -4.696,14.612l-6.083,30.778l-10.823,0l8.448,-42.85c0.602,-2.908 0.896,-4.98 0.881,-6.215c-0.025,-2.072 -0.693,-3.745 -2.004,-5.02c-1.311,-1.275 -3.003,-1.913 -5.076,-1.913c-3.07,0 -6.277,0.976 -9.622,2.929c-3.344,1.952 -6.052,4.671 -8.122,8.157c-2.071,3.487 -3.744,8.457 -5.021,14.911l-5.914,30.001l-10.823,0Z" style="fill-rule:nonzero;"/><path d="M898.72,779.845c-0.084,0.428 0.028,0.871 0.305,1.208c0.277,0.337 0.69,0.532 1.126,0.532l10.823,-0c0.697,-0 1.296,-0.493 1.431,-1.177l5.913,-30c1.237,-6.252 2.839,-11.072 4.845,-14.449c1.938,-3.265 4.471,-5.815 7.603,-7.643c3.092,-1.804 6.049,-2.729 8.887,-2.729c1.653,-0 3.013,0.482 4.059,1.499c1.04,1.011 1.543,2.349 1.563,3.993c0.014,1.173 -0.279,3.139 -0.851,5.901c-0.001,0.005 -0.002,0.01 -0.003,0.014l-8.448,42.85c-0.084,0.428 0.027,0.872 0.304,1.209c0.277,0.337 0.691,0.532 1.127,0.532l10.823,-0c0.696,-0 1.295,-0.493 1.43,-1.176l6.084,-30.776c1.275,-6.373 2.771,-11.101 4.53,-14.172c1.69,-2.949 4.087,-5.329 7.183,-7.147c3.077,-1.806 6.104,-2.727 9.093,-2.727c1.966,-0 3.514,0.436 4.608,1.419c1.036,0.931 1.529,2.219 1.549,3.833c0.017,1.412 -0.331,3.755 -1.016,7.035c-0.001,0.006 -0.002,0.012 -0.004,0.018l-8.22,41.954c-0.083,0.428 0.029,0.871 0.306,1.207c0.277,0.337 0.69,0.532 1.126,0.532l10.823,-0c0.696,-0 1.296,-0.493 1.43,-1.177l8.055,-40.885c0.888,-4.638 1.308,-7.963 1.284,-9.974c-0.061,-5 -1.615,-8.862 -4.567,-11.625c-2.91,-2.724 -7.218,-4.159 -12.971,-4.159c-4.196,0 -8.178,1.046 -11.945,3.143c-3.049,1.697 -5.975,4.102 -8.768,7.227c-1.097,-2.849 -2.785,-5.153 -5.05,-6.923c-2.92,-2.282 -6.526,-3.447 -10.832,-3.447c-3.959,0 -7.619,0.918 -10.981,2.747c-2.303,1.254 -4.826,3.219 -7.559,5.908c-0,0.001 1.092,-5.477 1.092,-5.477c0.085,-0.428 -0.026,-0.872 -0.303,-1.21c-0.277,-0.338 -0.69,-0.534 -1.127,-0.534l-10.823,0c-0.697,0 -1.296,0.493 -1.431,1.177l-12.503,63.469Zm1.431,0.281l12.503,-63.468l10.823,-0l-2.085,10.458c3.971,-4.502 7.531,-7.609 10.679,-9.323c3.149,-1.713 6.576,-2.569 10.284,-2.569c3.946,-0 7.258,1.045 9.934,3.137c2.676,2.092 4.456,5.01 5.339,8.755c3.18,-3.984 6.542,-6.962 10.086,-8.934c3.544,-1.972 7.289,-2.958 11.236,-2.958c5.302,-0 9.293,1.255 11.975,3.765c2.681,2.51 4.049,6.036 4.105,10.578c0.023,1.952 -0.396,5.179 -1.258,9.681l-8.053,40.878l-10.823,0l8.219,-41.953c0.716,-3.427 1.065,-5.877 1.047,-7.351c-0.025,-2.072 -0.703,-3.706 -2.033,-4.901c-1.33,-1.195 -3.191,-1.793 -5.582,-1.793c-3.229,0 -6.506,0.976 -9.831,2.929c-3.325,1.952 -5.895,4.512 -7.71,7.679c-1.815,3.168 -3.38,8.038 -4.696,14.612l-6.083,30.778l-10.823,0l8.448,-42.85c0.602,-2.908 0.896,-4.98 0.881,-6.215c-0.025,-2.072 -0.693,-3.745 -2.004,-5.02c-1.311,-1.275 -3.003,-1.913 -5.076,-1.913c-3.07,0 -6.277,0.976 -9.622,2.929c-3.344,1.952 -6.052,4.671 -8.122,8.157c-2.071,3.487 -3.744,8.457 -5.021,14.911l-5.914,30.001l-10.823,0Z"/><path d="M1044.94,772.238c-3.708,3.227 -7.287,5.588 -10.737,7.082c-3.45,1.494 -7.148,2.241 -11.095,2.241c-5.86,-0 -10.604,-1.723 -14.234,-5.17c-3.63,-3.446 -5.477,-7.859 -5.543,-13.237c-0.043,-3.546 0.726,-6.684 2.307,-9.413c1.582,-2.729 3.698,-4.921 6.349,-6.574c2.65,-1.653 5.905,-2.839 9.763,-3.556c2.426,-0.478 7.035,-0.857 13.829,-1.135c6.793,-0.279 11.658,-0.996 14.593,-2.152c0.802,-2.948 1.191,-5.399 1.167,-7.351c-0.031,-2.51 -0.972,-4.482 -2.823,-5.916c-2.535,-1.992 -6.215,-2.989 -11.038,-2.989c-4.545,0 -8.25,1.006 -11.116,3.019c-2.865,2.012 -4.933,4.87 -6.204,8.576l-10.954,-0.957c2.156,-6.295 5.635,-11.116 10.438,-14.462c4.803,-3.347 10.891,-5.02 18.266,-5.02c7.853,-0 14.095,1.872 18.725,5.617c3.542,2.789 5.34,6.415 5.394,10.877c0.041,3.387 -0.409,7.311 -1.352,11.774l-3.336,15.777c-1.055,5.02 -1.563,9.104 -1.525,12.252c0.024,1.992 0.498,4.86 1.42,8.605l-10.942,0c-0.624,-2.071 -1.074,-4.701 -1.352,-7.888Zm3.711,-24.264c-1.507,0.597 -3.126,1.056 -4.857,1.374c-1.73,0.319 -4.626,0.658 -8.687,1.016c-6.292,0.558 -10.728,1.265 -13.309,2.122c-2.581,0.857 -4.518,2.221 -5.81,4.094c-1.293,1.872 -1.926,3.944 -1.898,6.215c0.037,3.028 1.114,5.518 3.23,7.47c2.117,1.953 5.109,2.929 8.975,2.929c3.588,-0 7.025,-0.946 10.31,-2.839c3.286,-1.892 5.865,-4.532 7.737,-7.918c1.873,-3.387 3.309,-8.208 4.309,-14.463Z" style="fill-rule:nonzero;"/><path d="M1043.78,775.096c0.281,2.108 0.652,3.925 1.111,5.45c0.185,0.617 0.753,1.039 1.397,1.039l10.942,-0c0.448,-0 0.872,-0.206 1.148,-0.559c0.276,-0.353 0.375,-0.813 0.268,-1.248c-0.887,-3.602 -1.355,-6.359 -1.378,-8.275c-0.037,-3.066 0.466,-7.043 1.494,-11.934l3.336,-15.776c0.968,-4.583 1.425,-8.614 1.383,-12.093c-0.06,-4.921 -2.039,-8.922 -5.943,-11.999c-4.859,-3.927 -11.395,-5.936 -19.634,-5.936c-7.715,0 -14.076,1.781 -19.1,5.282c-5.047,3.517 -8.718,8.572 -10.984,15.187c-0.145,0.424 -0.087,0.892 0.158,1.268c0.244,0.376 0.648,0.618 1.095,0.657l10.954,0.956c0.668,0.059 1.289,-0.346 1.507,-0.979c1.162,-3.39 3.041,-6.015 5.662,-7.856c2.648,-1.859 6.079,-2.753 10.278,-2.753c4.422,-0 7.812,0.85 10.137,2.676c0.003,0.002 0.005,0.004 0.008,0.006c1.493,1.157 2.233,2.757 2.258,4.782c0.02,1.683 -0.294,3.757 -0.924,6.223c-2.887,0.97 -7.369,1.555 -13.438,1.804c-6.895,0.284 -11.576,0.676 -14.043,1.161c-4.056,0.754 -7.474,2.012 -10.261,3.751c-2.855,1.781 -5.135,4.14 -6.838,7.08c-1.708,2.947 -2.551,6.332 -2.504,10.161c0.071,5.804 2.08,10.559 5.997,14.278c3.888,3.692 8.96,5.57 15.238,5.57c4.153,0 8.044,-0.789 11.675,-2.361c2.91,-1.26 5.912,-3.112 9.001,-5.562l0,0Zm1.156,-2.858c-3.708,3.227 -7.287,5.588 -10.737,7.082c-3.45,1.494 -7.148,2.241 -11.095,2.241c-5.86,-0 -10.604,-1.723 -14.234,-5.17c-3.63,-3.446 -5.477,-7.859 -5.543,-13.237c-0.043,-3.546 0.726,-6.684 2.307,-9.413c1.582,-2.729 3.698,-4.921 6.349,-6.574c2.65,-1.653 5.905,-2.839 9.763,-3.556c2.426,-0.478 7.035,-0.857 13.829,-1.135c6.793,-0.279 11.658,-0.996 14.593,-2.152c0.802,-2.948 1.191,-5.399 1.167,-7.351c-0.031,-2.51 -0.972,-4.482 -2.823,-5.916c-2.535,-1.992 -6.215,-2.989 -11.038,-2.989c-4.545,0 -8.25,1.006 -11.116,3.019c-2.865,2.012 -4.933,4.87 -6.204,8.576l-10.954,-0.957c2.156,-6.295 5.635,-11.116 10.438,-14.462c4.803,-3.347 10.891,-5.02 18.266,-5.02c7.853,-0 14.095,1.872 18.725,5.617c3.542,2.789 5.34,6.415 5.394,10.877c0.041,3.387 -0.409,7.311 -1.352,11.774l-3.336,15.777c-1.055,5.02 -1.563,9.104 -1.525,12.252c0.024,1.992 0.498,4.86 1.42,8.605l-10.942,0c-0.624,-2.071 -1.074,-4.701 -1.352,-7.888Zm3.711,-24.264c-1.507,0.597 -3.126,1.056 -4.857,1.374c-1.73,0.319 -4.626,0.658 -8.687,1.016c-6.292,0.558 -10.728,1.265 -13.309,2.122c-2.581,0.857 -4.518,2.221 -5.81,4.094c-1.293,1.872 -1.926,3.944 -1.898,6.215c0.037,3.028 1.114,5.518 3.23,7.47c2.117,1.953 5.109,2.929 8.975,2.929c3.588,-0 7.025,-0.946 10.31,-2.839c3.286,-1.892 5.865,-4.532 7.737,-7.918c1.873,-3.387 3.309,-8.208 4.309,-14.463Zm-1.859,2.169c-0.93,4.896 -2.163,8.761 -3.726,11.588c-1.74,3.147 -4.135,5.602 -7.188,7.36c-3.055,1.76 -6.248,2.645 -9.583,2.645c-3.433,-0 -6.107,-0.809 -7.986,-2.542c-1.817,-1.676 -2.729,-3.818 -2.761,-6.417c-0.024,-1.961 0.523,-3.751 1.64,-5.369c1.124,-1.629 2.825,-2.793 5.069,-3.538c2.516,-0.835 6.844,-1.509 12.978,-2.053c4.125,-0.364 7.066,-0.711 8.824,-1.034c0.942,-0.174 1.853,-0.387 2.733,-0.639l0,-0.001Z"/><path d="M1113.88,756.998l10.837,1.136c-2.614,7.928 -6.399,13.815 -11.356,17.66c-4.956,3.844 -10.623,5.767 -17.001,5.767c-6.897,-0 -12.515,-2.231 -16.854,-6.694c-4.34,-4.462 -6.558,-10.697 -6.656,-18.706c-0.084,-6.932 1.208,-13.745 3.878,-20.439c2.669,-6.693 6.543,-11.783 11.623,-15.269c5.081,-3.486 10.909,-5.229 17.487,-5.229c6.817,-0 12.241,1.922 16.275,5.767c4.033,3.844 6.088,8.934 6.165,15.269l-10.635,0.717c-0.089,-4.024 -1.293,-7.171 -3.613,-9.442c-2.32,-2.271 -5.353,-3.407 -9.1,-3.407c-4.346,0 -8.096,1.375 -11.252,4.124c-3.155,2.749 -5.606,6.922 -7.352,12.52c-1.745,5.598 -2.587,10.987 -2.524,16.166c0.066,5.419 1.312,9.483 3.736,12.192c2.425,2.709 5.391,4.064 8.9,4.064c3.508,-0 6.85,-1.335 10.026,-4.004c3.177,-2.67 5.649,-6.734 7.416,-12.192Z" style="fill-rule:nonzero;"/><path d="M1114.03,755.548c-0.685,-0.072 -1.327,0.345 -1.539,1.001c-1.668,5.151 -3.969,9.005 -6.967,11.524c-2.883,2.423 -5.905,3.663 -9.088,3.663c-3.082,-0 -5.683,-1.199 -7.813,-3.579c-2.231,-2.492 -3.304,-6.252 -3.364,-11.236c-0.062,-5.035 0.761,-10.273 2.458,-15.715c1.65,-5.291 3.934,-9.256 6.917,-11.854c2.887,-2.515 6.319,-3.765 10.294,-3.765c3.322,-0 6.023,0.976 8.08,2.99c2.067,2.024 3.096,4.846 3.175,8.433c0.009,0.398 0.18,0.775 0.474,1.044c0.294,0.268 0.685,0.405 1.082,0.378l10.635,-0.717c0.772,-0.052 1.37,-0.698 1.36,-1.473c-0.082,-6.77 -2.307,-12.198 -6.617,-16.307c-4.286,-4.086 -10.037,-6.17 -17.281,-6.17c-6.889,0 -12.991,1.834 -18.312,5.485c-5.304,3.641 -9.366,8.943 -12.153,15.932c-2.742,6.876 -4.068,13.875 -3.981,20.997c0.103,8.444 2.493,15 7.068,19.705c4.611,4.742 10.572,7.135 17.9,7.135c6.714,0 12.678,-2.026 17.895,-6.073c5.157,-4.001 9.127,-10.106 11.847,-18.356c0.138,-0.419 0.079,-0.878 -0.16,-1.248c-0.24,-0.371 -0.634,-0.613 -1.073,-0.659l-10.837,-1.135Zm-0.152,1.45l10.837,1.136c-2.614,7.928 -6.399,13.815 -11.356,17.66c-4.956,3.844 -10.623,5.767 -17.001,5.767c-6.897,-0 -12.515,-2.231 -16.854,-6.694c-4.34,-4.462 -6.558,-10.697 -6.656,-18.706c-0.084,-6.932 1.208,-13.745 3.878,-20.439c2.669,-6.693 6.543,-11.783 11.623,-15.269c5.081,-3.486 10.909,-5.229 17.487,-5.229c6.817,-0 12.241,1.922 16.275,5.767c4.033,3.844 6.088,8.934 6.165,15.269l-10.635,0.717c-0.089,-4.024 -1.293,-7.171 -3.613,-9.442c-2.32,-2.271 -5.353,-3.407 -9.1,-3.407c-4.346,0 -8.096,1.375 -11.252,4.124c-3.155,2.749 -5.606,6.922 -7.352,12.52c-1.745,5.598 -2.587,10.987 -2.524,16.166c0.066,5.419 1.312,9.483 3.736,12.192c2.425,2.709 5.391,4.064 8.9,4.064c3.508,-0 6.85,-1.335 10.026,-4.004c3.177,-2.67 5.649,-6.734 7.416,-12.192Z"/><path d="M1127.79,804.629l0.534,-10.159c2.24,0.637 4.417,0.956 6.529,0.956c2.193,-0 3.961,-0.498 5.304,-1.494c1.738,-1.315 3.622,-3.785 5.65,-7.411l3.393,-6.215l-11.358,-63.648l10.644,-0l5.174,32.093c1.033,6.335 1.928,12.67 2.682,19.004l27.782,-51.097l11.301,-0l-39.607,71.895c-3.821,7.012 -7.233,11.654 -10.235,13.925c-3.002,2.271 -6.476,3.406 -10.423,3.406c-2.511,0 -4.968,-0.418 -7.37,-1.255Z" style="fill-rule:nonzero;"/><path d="M1126.34,804.553c-0.034,0.648 0.364,1.24 0.976,1.454c2.559,0.891 5.175,1.336 7.85,1.336c4.281,-0 8.047,-1.239 11.303,-3.702c3.108,-2.351 6.678,-7.128 10.634,-14.387c-0,0 39.605,-71.892 39.605,-71.892c0.249,-0.452 0.241,-1.002 -0.021,-1.446c-0.263,-0.444 -0.74,-0.717 -1.256,-0.717l-11.301,0c-0.535,0 -1.026,0.293 -1.281,0.762l-25.614,47.11c-0.628,-4.852 -1.338,-9.703 -2.13,-14.553c0,-0 -5.174,-32.092 -5.174,-32.092c-0.114,-0.707 -0.724,-1.227 -1.439,-1.227l-10.644,0c-0.432,0 -0.841,0.192 -1.118,0.523c-0.277,0.33 -0.394,0.767 -0.318,1.192l11.268,63.143c0,0 -3.143,5.758 -3.143,5.758c-1.895,3.386 -3.624,5.718 -5.248,6.949c-1.12,0.828 -2.604,1.204 -4.43,1.204c-1.983,-0 -4.026,-0.302 -6.13,-0.901c-0.427,-0.122 -0.886,-0.042 -1.247,0.216c-0.361,0.258 -0.585,0.667 -0.608,1.11l-0.534,10.16Zm1.456,0.076l0.534,-10.159c2.24,0.637 4.417,0.956 6.529,0.956c2.193,-0 3.961,-0.498 5.304,-1.494c1.738,-1.315 3.622,-3.785 5.65,-7.411l3.393,-6.215l-11.358,-63.648l10.644,-0l5.174,32.093c1.033,6.335 1.928,12.67 2.682,19.004l27.782,-51.097l11.301,-0l-39.607,71.895c-3.821,7.012 -7.233,11.654 -10.235,13.925c-3.002,2.271 -6.476,3.406 -10.423,3.406c-2.511,0 -4.968,-0.418 -7.37,-1.255Z"/></g></g><path d="M246.271,465.436c-4.932,8.551 -7.559,17.526 -7.559,26.781c0,57.554 101.583,104.281 226.705,104.281c65.701,-0 124.913,-12.884 166.325,-33.451c-35.862,34.386 -109.328,57.975 -194.051,57.975c-119.97,-0 -217.37,-47.299 -217.37,-105.559c0,-18.095 9.397,-35.133 25.95,-50.027Z" style="fill:#170000;"/><path d="M545.62,478.944l-5.852,25.731l-72.632,72.518l-0.481,0.478l4.908,-24.67l74.057,-74.057Zm69.157,-69.157l167.094,-167.094l0.14,-0.141c47.79,-47.965 42.655,-130.787 -11.502,-184.943c-54.211,-54.211 -137.144,-59.302 -185.084,-11.362l-324.387,324.387l-19.032,-0c2.674,-3.33 5.551,-6.548 8.627,-9.635l0.154,-0.155l324.618,-324.617l0.155,-0.155c52.858,-52.664 144.129,-47.006 203.81,12.676c57.871,57.871 71.156,145.056 12.384,203.828l-149.512,149.746l0.02,0.02l-9.804,9.789c-2.67,-0.776 -5.585,-1.356 -8.745,-1.739c-2.092,-0.281 -5.071,-0.482 -8.936,-0.605Z"/><path d="M550.973,455.406l10.407,-45.761l35.354,-0l10.557,-10.557l-178.262,-178.261l-149.807,149.807l92.45,-0l-27.087,136.168l136.168,-0l-4.675,23.499l74.895,-74.895Z" style="fill:#fff;"/><g><path d="M554.089,501.125l17.37,-76.89l29.872,-0c6.479,-0 11.013,0.175 13.601,0.524c4.299,0.525 7.949,1.574 10.95,3.147c3,1.574 5.291,3.672 6.873,6.294c1.583,2.623 2.393,5.525 2.432,8.707c0.052,4.265 -1.255,7.963 -3.92,11.093c-2.665,3.129 -6.81,5.498 -12.435,7.106c4.505,1.084 8.037,3.016 10.595,5.796c2.558,2.78 3.858,5.918 3.9,9.415c0.056,4.615 -1.381,8.995 -4.312,13.138c-2.931,4.143 -7.009,7.124 -12.233,8.943c-5.225,1.818 -12.389,2.727 -21.492,2.727l-41.201,-0Zm28.301,-45.84l13.714,-0c6.161,-0 10.589,-0.385 13.282,-1.154c2.694,-0.77 4.706,-2.028 6.036,-3.777c1.33,-1.748 1.983,-3.619 1.959,-5.612c-0.024,-1.958 -0.679,-3.566 -1.967,-4.825c-1.287,-1.259 -3.106,-2.098 -5.456,-2.518c-1.314,-0.209 -4.476,-0.314 -9.484,-0.314l-13.953,-0l-4.131,18.2Zm-7.523,33.462l17.351,-0c7.274,-0 12.149,-0.411 14.623,-1.233c2.474,-0.821 4.445,-2.176 5.913,-4.064c1.468,-1.889 2.189,-3.882 2.163,-5.98c-0.031,-2.552 -1.13,-4.659 -3.296,-6.32c-2.167,-1.661 -5.755,-2.491 -10.763,-2.491l-21.465,0l-4.526,20.088Z" style="fill:#b72025;fill-rule:nonzero;"/><path d="M665.937,461.211l-16.71,-1.258c1.848,-4.966 5.129,-8.847 9.846,-11.644c4.716,-2.797 10.989,-4.196 18.82,-4.196c8.149,-0 14.188,1.442 18.119,4.327c3.93,2.885 5.921,6.407 5.972,10.568c0.02,1.679 -0.127,3.462 -0.442,5.35c-0.315,1.888 -1.437,6.854 -3.367,14.896c-1.588,6.643 -2.366,11.294 -2.334,13.951c0.029,2.378 0.538,5.018 1.527,7.92l-16.635,-0c-0.701,-2.028 -1.144,-4.126 -1.329,-6.294c-2.474,2.448 -5.333,4.327 -8.577,5.638c-3.243,1.312 -6.515,1.967 -9.814,1.967c-5.247,0 -9.598,-1.512 -13.054,-4.537c-3.455,-3.024 -5.211,-6.914 -5.269,-11.67c-0.065,-5.314 1.762,-9.563 5.479,-12.745c3.718,-3.182 10.402,-5.105 20.054,-5.769c8.141,-0.594 13.578,-1.311 16.311,-2.15c0.69,-2.098 1.027,-3.777 1.012,-5.036c-0.02,-1.608 -0.772,-2.954 -2.256,-4.038c-1.484,-1.084 -3.676,-1.626 -6.578,-1.626c-3.061,-0 -5.469,0.551 -7.224,1.652c-1.756,1.102 -2.939,2.666 -3.551,4.694Zm16.448,13.952c-1.031,0.244 -2.399,0.472 -4.106,0.682c-8.575,0.909 -14.164,2.237 -16.766,3.986c-1.853,1.258 -2.766,2.954 -2.74,5.087c0.021,1.748 0.754,3.226 2.2,4.432c1.446,1.206 3.341,1.81 5.686,1.81c2.584,-0 5.012,-0.551 7.284,-1.653c2.273,-1.101 3.965,-2.517 5.076,-4.248c1.112,-1.731 2.083,-4.432 2.913,-8.103l0.453,-1.993Z" style="fill:#b72025;fill-rule:nonzero;"/><path d="M722.985,445.424l16.218,0l-1.581,7.238c4.017,-3.077 7.776,-5.271 11.278,-6.582c3.502,-1.311 7.201,-1.967 11.096,-1.967c5.208,-0 9.328,1.311 12.361,3.934c3.033,2.622 4.576,6.101 4.629,10.437c0.023,1.958 -0.587,5.664 -1.833,11.119l-7.07,31.522l-17.112,-0l7.128,-31.627c1.056,-4.72 1.578,-7.535 1.567,-8.444c-0.023,-1.923 -0.688,-3.435 -1.993,-4.537c-1.305,-1.101 -3.111,-1.652 -5.416,-1.652c-2.504,-0 -5.276,0.927 -8.314,2.78c-3.038,1.853 -5.413,4.301 -7.125,7.343c-1.246,2.168 -2.623,6.591 -4.132,13.269l-5.148,22.868l-17.112,-0l12.559,-55.701Z" style="fill:#b72025;fill-rule:nonzero;"/><path d="M808.441,461.211l-16.71,-1.258c1.847,-4.966 5.129,-8.847 9.845,-11.644c4.716,-2.797 10.99,-4.196 18.821,-4.196c8.148,-0 14.188,1.442 18.119,4.327c3.93,2.885 5.921,6.407 5.971,10.568c0.021,1.679 -0.126,3.462 -0.441,5.35c-0.315,1.888 -1.437,6.854 -3.367,14.896c-1.589,6.643 -2.367,11.294 -2.334,13.951c0.029,2.378 0.538,5.018 1.527,7.92l-16.635,-0c-0.701,-2.028 -1.144,-4.126 -1.329,-6.294c-2.475,2.448 -5.334,4.327 -8.577,5.638c-3.244,1.312 -6.515,1.967 -9.814,1.967c-5.247,0 -9.599,-1.512 -13.054,-4.537c-3.455,-3.024 -5.212,-6.914 -5.27,-11.67c-0.064,-5.314 1.762,-9.563 5.48,-12.745c3.718,-3.182 10.402,-5.105 20.053,-5.769c8.142,-0.594 13.579,-1.311 16.311,-2.15c0.69,-2.098 1.028,-3.777 1.012,-5.036c-0.019,-1.608 -0.771,-2.954 -2.255,-4.038c-1.484,-1.084 -3.677,-1.626 -6.578,-1.626c-3.061,-0 -5.469,0.551 -7.225,1.652c-1.755,1.102 -2.939,2.666 -3.55,4.694Zm16.447,13.952c-1.03,0.244 -2.399,0.472 -4.105,0.682c-8.575,0.909 -14.164,2.237 -16.766,3.986c-1.853,1.258 -2.767,2.954 -2.741,5.087c0.022,1.748 0.755,3.226 2.201,4.432c1.445,1.206 3.341,1.81 5.686,1.81c2.584,-0 5.012,-0.551 7.284,-1.653c2.272,-1.101 3.964,-2.517 5.076,-4.248c1.112,-1.731 2.083,-4.432 2.913,-8.103l0.452,-1.993Z" style="fill:#b72025;fill-rule:nonzero;"/><path d="M864.297,445.424l15.979,0l-2.432,10.805c5.864,-8.077 12.274,-12.116 19.23,-12.116c2.465,-0 5.115,0.542 7.95,1.626l-6.409,12.325c-1.556,-0.489 -3.208,-0.734 -4.957,-0.734c-2.942,0 -5.921,0.979 -8.938,2.937c-3.017,1.958 -5.361,4.572 -7.03,7.841c-1.67,3.27 -3.296,8.453 -4.879,15.551l-3.961,17.466l-17.113,-0l12.56,-55.701Z" style="fill:#b72025;fill-rule:nonzero;"/><path d="M923.875,461.211l-16.71,-1.258c1.847,-4.966 5.129,-8.847 9.845,-11.644c4.716,-2.797 10.99,-4.196 18.821,-4.196c8.148,-0 14.188,1.442 18.119,4.327c3.93,2.885 5.921,6.407 5.971,10.568c0.021,1.679 -0.126,3.462 -0.441,5.35c-0.315,1.888 -1.437,6.854 -3.367,14.896c-1.589,6.643 -2.367,11.294 -2.334,13.951c0.029,2.378 0.538,5.018 1.527,7.92l-16.635,-0c-0.701,-2.028 -1.144,-4.126 -1.329,-6.294c-2.475,2.448 -5.334,4.327 -8.577,5.638c-3.244,1.312 -6.515,1.967 -9.814,1.967c-5.247,0 -9.599,-1.512 -13.054,-4.537c-3.455,-3.024 -5.212,-6.914 -5.27,-11.67c-0.064,-5.314 1.762,-9.563 5.48,-12.745c3.718,-3.182 10.402,-5.105 20.053,-5.769c8.142,-0.594 13.579,-1.311 16.311,-2.15c0.69,-2.098 1.028,-3.777 1.012,-5.036c-0.019,-1.608 -0.771,-2.954 -2.255,-4.038c-1.484,-1.084 -3.677,-1.626 -6.578,-1.626c-3.061,-0 -5.469,0.551 -7.225,1.652c-1.755,1.102 -2.939,2.666 -3.55,4.694Zm16.447,13.952c-1.03,0.244 -2.399,0.472 -4.105,0.682c-8.575,0.909 -14.164,2.237 -16.766,3.986c-1.853,1.258 -2.767,2.954 -2.741,5.087c0.022,1.748 0.755,3.226 2.201,4.432c1.445,1.206 3.341,1.81 5.686,1.81c2.584,-0 5.012,-0.551 7.284,-1.653c2.272,-1.101 3.964,-2.517 5.076,-4.248c1.112,-1.731 2.083,-4.432 2.913,-8.103l0.452,-1.993Z" style="fill:#b72025;fill-rule:nonzero;"/><path d="M965.73,485.548l16.547,-2.308c1.509,3.077 3.364,5.253 5.565,6.53c2.202,1.276 5.191,1.914 8.967,1.914c3.896,0 7.007,-0.769 9.333,-2.308c1.617,-1.049 2.417,-2.325 2.398,-3.828c-0.012,-1.014 -0.44,-1.924 -1.285,-2.728c-0.884,-0.769 -3.26,-1.713 -7.13,-2.832c-10.371,-3.007 -16.8,-5.385 -19.286,-7.133c-3.889,-2.727 -5.86,-6.294 -5.913,-10.7c-0.054,-4.405 1.768,-8.199 5.466,-11.381c5.153,-4.441 12.857,-6.661 23.113,-6.661c8.149,-0 14.326,1.311 18.532,3.934c4.205,2.622 6.892,6.171 8.059,10.647l-15.771,2.412c-0.859,-2.028 -2.229,-3.549 -4.11,-4.563c-2.561,-1.363 -5.63,-2.045 -9.207,-2.045c-3.578,-0 -6.145,0.524 -7.702,1.573c-1.558,1.049 -2.328,2.256 -2.312,3.619c0.017,1.399 0.826,2.553 2.427,3.462c1.001,0.559 4.213,1.538 9.636,2.937c8.373,2.133 13.984,4.231 16.831,6.294c4.01,2.902 6.04,6.399 6.09,10.49c0.064,5.28 -2.404,9.86 -7.405,13.741c-5.001,3.882 -12.093,5.822 -21.275,5.822c-9.143,0 -16.226,-1.477 -21.251,-4.432c-5.024,-2.954 -8.463,-7.107 -10.317,-12.456Z" style="fill:#b72025;fill-rule:nonzero;"/></g></g></svg>